<?xml version="1.0" encoding="UTF-8"?>
<svg version="1.1" xmlns="http://www.w3.org/2000/svg" width="218" height="215">
<path d="M0 0 C4.18862176 2.74406938 6.15488705 5.33866203 8 10 C8 11.32 8 12.64 8 14 C30.77 14 53.54 14 77 14 C77.33 11.69 77.66 9.38 78 7 C79.69973469 4.02694489 81.90036949 1.54981526 85 0 C97.3973064 -1.09988777 97.3973064 -1.09988777 102.1875 2.1875 C102.785625 3.115625 103.38375 4.04375 104 5 C104.598125 5.845625 105.19625 6.69125 105.8125 7.5625 C107 10 107 10 107 14 C107.90878906 14.02126953 107.90878906 14.02126953 108.8359375 14.04296875 C119.32820234 14.64022075 127.96454548 19.19457084 135 27 C140.49565753 34.58400739 143.17500891 41.7598442 143.4074707 51.19311523 C143.426378 51.88102961 143.4452853 52.56894398 143.46476555 53.27770424 C143.52411754 55.55871524 143.56926905 57.83973861 143.61328125 60.12109375 C143.65076638 61.7580159 143.68847641 63.39493292 143.72639465 65.03184509 C144.12786479 83.45291795 144.18725705 101.87771092 144.18530273 120.30249023 C144.18519919 125.16881772 144.19911133 130.03500554 144.21607494 134.90129948 C144.22722231 138.72166084 144.22922148 142.54198786 144.22869301 146.36236382 C144.22985891 148.1582839 144.2342007 149.9542053 144.24202538 151.75010872 C144.29407469 164.86656511 144.1498015 177.08475959 138 189 C137.62875 189.7425 137.2575 190.485 136.875 191.25 C136.441875 192.11625 136.441875 192.11625 136 193 C135.34 193 134.68 193 134 193 C133.61134766 193.8971875 133.61134766 193.8971875 133.21484375 194.8125 C128.8951127 202.59079386 119.15258074 205.1774714 111.18099213 207.5388298 C108.60196744 208.08416388 106.22555629 208.13222052 103.58850098 208.14044189 C102.4896759 208.14615204 101.39085083 208.15186218 100.25872803 208.15774536 C99.05766418 208.15886322 97.85660034 208.15998108 96.61914062 208.16113281 C95.35036072 208.16609772 94.08158081 208.17106262 92.77435303 208.17617798 C89.29455681 208.18928236 85.81477988 208.19574395 82.33496284 208.20018864 C80.15654875 208.2031246 77.97813986 208.20723055 75.79972839 208.21169281 C68.97174432 208.22536713 62.14377221 208.23503218 55.31577539 208.2388947 C47.45770914 208.24336518 39.59981773 208.26086612 31.7418046 208.2898953 C25.65410975 208.31159604 19.56646375 208.32160356 13.47873068 208.32293582 C9.84987247 208.32397854 6.22117861 208.32977079 2.59236145 208.34775543 C-1.46652608 208.36747927 -5.52505398 208.36291396 -9.58398438 208.35644531 C-10.76885437 208.3656601 -11.95372437 208.37487488 -13.17449951 208.3843689 C-25.85313005 208.32140273 -37.2845446 205.85647826 -46.96484375 197.25390625 C-54.45232414 189.37321026 -59.09725215 179.45833848 -59.14717102 168.58213806 C-59.15432632 167.50718079 -59.16148163 166.43222351 -59.16885376 165.32469177 C-59.17154266 164.15527542 -59.17423157 162.98585907 -59.17700195 161.78100586 C-59.18357315 160.54134064 -59.19014435 159.30167542 -59.19691467 158.02444458 C-59.21662675 153.92124181 -59.22831332 149.8180781 -59.23828125 145.71484375 C-59.24233195 144.29702803 -59.24644896 142.87921251 -59.25063133 141.46139717 C-59.26967102 134.79573646 -59.28390234 128.1300867 -59.2922433 121.46440405 C-59.30199931 113.79646486 -59.32828084 106.12881559 -59.36874419 98.46097845 C-59.39901942 92.51763712 -59.41372308 86.57437835 -59.41702431 80.63096148 C-59.41936259 77.08924594 -59.42816119 73.54784051 -59.45348549 70.00620842 C-59.48134854 66.04563262 -59.47690036 62.08543037 -59.4699707 58.12475586 C-59.48278076 56.96950912 -59.49559082 55.81426239 -59.50878906 54.62400818 C-59.44615374 44.7495203 -57.4716148 34.76593776 -51 27 C-50.34 27 -49.68 27 -49 27 C-48.731875 26.360625 -48.46375 25.72125 -48.1875 25.0625 C-47 23 -47 23 -44 22 C-44 21.34 -44 20.68 -44 20 C-36.93179365 16.08916501 -31.13695602 13.27123187 -23 13 C-22.62875 11.783125 -22.2575 10.56625 -21.875 9.3125 C-20.54164343 5.91575905 -19.15488964 3.09313117 -16.140625 0.84765625 C-11.10336998 -1.1470232 -5.26383082 -0.89269646 0 0 Z " fill="#E1E5EB" transform="translate(67,0)"/>
<path d="M0 0 C4.18862176 2.74406938 6.15488705 5.33866203 8 10 C8 11.32 8 12.64 8 14 C30.77 14 53.54 14 77 14 C77.33 11.69 77.66 9.38 78 7 C79.69973469 4.02694489 81.90036949 1.54981526 85 0 C97.3973064 -1.09988777 97.3973064 -1.09988777 102.1875 2.1875 C102.785625 3.115625 103.38375 4.04375 104 5 C104.598125 5.845625 105.19625 6.69125 105.8125 7.5625 C107 10 107 10 107 14 C107.90878906 14.02126953 107.90878906 14.02126953 108.8359375 14.04296875 C119.32820234 14.64022075 127.96454548 19.19457084 135 27 C140.49565753 34.58400739 143.17500891 41.7598442 143.4074707 51.19311523 C143.426378 51.88102961 143.4452853 52.56894398 143.46476555 53.27770424 C143.52411754 55.55871524 143.56926905 57.83973861 143.61328125 60.12109375 C143.65076638 61.7580159 143.68847641 63.39493292 143.72639465 65.03184509 C144.12786479 83.45291795 144.18725705 101.87771092 144.18530273 120.30249023 C144.18519919 125.16881772 144.19911133 130.03500554 144.21607494 134.90129948 C144.22722231 138.72166084 144.22922148 142.54198786 144.22869301 146.36236382 C144.22985891 148.1582839 144.2342007 149.9542053 144.24202538 151.75010872 C144.29407469 164.86656511 144.1498015 177.08475959 138 189 C137.62875 189.7425 137.2575 190.485 136.875 191.25 C136.441875 192.11625 136.441875 192.11625 136 193 C135.34 193 134.68 193 134 193 C133.61134766 193.8971875 133.61134766 193.8971875 133.21484375 194.8125 C128.8951127 202.59079386 119.15258074 205.1774714 111.18099213 207.5388298 C108.60196744 208.08416388 106.22555629 208.13222052 103.58850098 208.14044189 C102.4896759 208.14615204 101.39085083 208.15186218 100.25872803 208.15774536 C99.05766418 208.15886322 97.85660034 208.15998108 96.61914062 208.16113281 C95.35036072 208.16609772 94.08158081 208.17106262 92.77435303 208.17617798 C89.29455681 208.18928236 85.81477988 208.19574395 82.33496284 208.20018864 C80.15654875 208.2031246 77.97813986 208.20723055 75.79972839 208.21169281 C68.97174432 208.22536713 62.14377221 208.23503218 55.31577539 208.2388947 C47.45770914 208.24336518 39.59981773 208.26086612 31.7418046 208.2898953 C25.65410975 208.31159604 19.56646375 208.32160356 13.47873068 208.32293582 C9.84987247 208.32397854 6.22117861 208.32977079 2.59236145 208.34775543 C-1.46652608 208.36747927 -5.52505398 208.36291396 -9.58398438 208.35644531 C-10.76885437 208.3656601 -11.95372437 208.37487488 -13.17449951 208.3843689 C-25.85313005 208.32140273 -37.2845446 205.85647826 -46.96484375 197.25390625 C-54.45232414 189.37321026 -59.09725215 179.45833848 -59.14717102 168.58213806 C-59.15432632 167.50718079 -59.16148163 166.43222351 -59.16885376 165.32469177 C-59.17154266 164.15527542 -59.17423157 162.98585907 -59.17700195 161.78100586 C-59.18357315 160.54134064 -59.19014435 159.30167542 -59.19691467 158.02444458 C-59.21662675 153.92124181 -59.22831332 149.8180781 -59.23828125 145.71484375 C-59.24233195 144.29702803 -59.24644896 142.87921251 -59.25063133 141.46139717 C-59.26967102 134.79573646 -59.28390234 128.1300867 -59.2922433 121.46440405 C-59.30199931 113.79646486 -59.32828084 106.12881559 -59.36874419 98.46097845 C-59.39901942 92.51763712 -59.41372308 86.57437835 -59.41702431 80.63096148 C-59.41936259 77.08924594 -59.42816119 73.54784051 -59.45348549 70.00620842 C-59.48134854 66.04563262 -59.47690036 62.08543037 -59.4699707 58.12475586 C-59.48278076 56.96950912 -59.49559082 55.81426239 -59.50878906 54.62400818 C-59.44615374 44.7495203 -57.4716148 34.76593776 -51 27 C-50.34 27 -49.68 27 -49 27 C-48.731875 26.360625 -48.46375 25.72125 -48.1875 25.0625 C-47 23 -47 23 -44 22 C-44 21.34 -44 20.68 -44 20 C-36.93179365 16.08916501 -31.13695602 13.27123187 -23 13 C-22.62875 11.783125 -22.2575 10.56625 -21.875 9.3125 C-20.54164343 5.91575905 -19.15488964 3.09313117 -16.140625 0.84765625 C-11.10336998 -1.1470232 -5.26383082 -0.89269646 0 0 Z M-51 68 C-51.00380597 96.61414577 -51.00380597 96.61414577 -50.86790943 125.22762012 C-50.83336628 130.02526729 -50.80847468 134.82258362 -50.80444336 139.62036133 C-50.80014954 144.33505655 -50.77165951 149.04904959 -50.72656822 153.76352501 C-50.71369207 155.53872269 -50.70925001 157.31400451 -50.71384621 159.08924294 C-50.75449529 172.76921766 -50.75449529 172.76921766 -45 185 C-44.49793533 185.72028885 -43.99587067 186.4405777 -43.47859192 187.18269348 C-38.69444188 193.29839083 -32.66277025 197.31687696 -24.89180946 198.45536804 C-21.32385825 198.63363735 -17.78829025 198.65305303 -14.21606445 198.61523438 C-12.85649932 198.61874289 -11.49693833 198.62440968 -10.13739014 198.63204956 C-6.47412854 198.64619866 -2.81162648 198.62933711 0.85156226 198.60576439 C4.6986296 198.58553813 8.54566901 198.59154082 12.39277649 198.59387207 C18.84767057 198.59381864 25.30227051 198.57414488 31.75708008 198.54199219 C39.20762734 198.50505874 46.65779035 198.4963246 54.10841721 198.5032897 C61.29631247 198.5096044 68.48407677 198.49882556 75.67194557 198.47932434 C78.72241909 198.47117425 81.77282546 198.46843634 84.82330894 198.47001648 C88.41615186 198.47089835 92.0086322 198.45659861 95.60137939 198.43078995 C97.54056503 198.42026744 99.47981268 198.4242881 101.41902161 198.42880249 C112.86256895 198.31729086 120.14689796 194.85310204 128.25 186.75 C133.09197234 179.14118633 134.58819506 172.05120176 134.45410156 163.13427734 C134.45482477 161.5564318 134.45482477 161.5564318 134.45556259 159.94671059 C134.45260126 156.5760963 134.42225357 153.20639137 134.390625 149.8359375 C134.38473633 147.74129664 134.38066026 145.64664989 134.37841797 143.55200195 C134.35753373 135.82624427 134.30168858 128.10061299 134.25 120.375 C134.1675 103.09125 134.085 85.8075 134 68 C72.95 68 11.9 68 -51 68 Z " fill="#1F1E33" transform="translate(67,0)"/>
<path d="M0 0 C0.02578125 1.01320313 0.0515625 2.02640625 0.078125 3.0703125 C0.13444181 4.42191597 0.19178833 5.77347681 0.25 7.125 C0.26417969 7.79015625 0.27835938 8.4553125 0.29296875 9.140625 C0.59854673 15.37441589 3.07488235 18.84839792 7.125 23.375 C11.40137331 25.79208057 15.20964173 26.00575174 20 25 C23.97521886 22.71514447 26.54218476 20.37344571 28 16 C28.33 10.72 28.66 5.44 29 0 C52.1 0 75.2 0 99 0 C99.495 6.93 99.495 6.93 100 14 C102.41179768 18.88877909 104.32379152 22.1488585 109 25 C112.7272788 25.66657743 116.26435329 25.60413278 120 25 C123.30819527 22.501975 126.60322391 19.36576984 127.31884766 15.09887695 C127.35026855 14.40238037 127.38168945 13.70588379 127.4140625 12.98828125 C127.47207031 11.85229492 127.47207031 11.85229492 127.53125 10.69335938 C127.5621875 9.90767578 127.593125 9.12199219 127.625 8.3125 C127.68300781 7.11657227 127.68300781 7.11657227 127.7421875 5.89648438 C127.83632494 3.93136525 127.91924632 1.9657146 128 0 C135.26847019 -0.10621981 139.63632507 1.40215543 145.15625 6.1640625 C147.29264582 8.2914058 148.76664807 10.24309569 150 13 C150.33773437 13.73734375 150.67546875 14.4746875 151.0234375 15.234375 C152.14894269 18.4218057 152.45129976 21.25624246 152.6875 24.625 C152.77386719 25.75164063 152.86023438 26.87828125 152.94921875 28.0390625 C153 31 153 31 152 34 C149.08809129 34.97063624 147.64589191 35.06174466 144.66015625 34.87890625 C143.77465088 34.83048584 142.88914551 34.78206543 141.97680664 34.73217773 C140.53422485 34.64818726 140.53422485 34.64818726 139.0625 34.5625 C125.37462936 33.85399054 111.70227764 33.90140064 98 34 C98 34.66 98 35.32 98 36 C85.55832962 36.13205723 73.11664379 36.26254443 60.67493725 36.39115143 C54.89469295 36.45094714 49.11445479 36.51123794 43.33422852 36.57275391 C-6.49678689 37.10239907 -6.49678689 37.10239907 -28 37 C-28.63414289 26.50250876 -28.37215642 18.9001694 -22 10 C-15.33460823 2.55044449 -9.98943382 -0.0940182 0 0 Z " fill="#9253F6" transform="translate(45,23)"/>
<path d="M0 0 C3.0625 2.1875 3.0625 2.1875 5 4 C3.56445993 8.66550523 3.56445993 8.66550523 1.3125 10 C-1 10 -1 10 -4.109375 8.5234375 C-8.29138561 6.67684953 -12.04188409 6.55267015 -16.5625 6.625 C-17.65594727 6.60759766 -17.65594727 6.60759766 -18.77148438 6.58984375 C-27.48623747 6.63690812 -33.02055884 11.03381702 -39 17 C-44.05889316 23.74519088 -44.89016856 31.81946361 -44 40 C-41.86355535 48.67370943 -37.12079683 55.17918658 -29.79296875 60.1953125 C-25.75348226 62.40275825 -22.16206158 62.61834926 -17.625 62.5 C-16.87621582 62.48646484 -16.12743164 62.47292969 -15.35595703 62.45898438 C-7.21209692 62.15454101 -1.8148096 60.22194892 3.875 54.25 C9.74982301 46.78407909 10.39544376 40.07863982 10.53466797 30.90258789 C10.68284407 25.45497299 10.68284407 25.45497299 12.40234375 22.98828125 C14 22 14 22 16.0625 22 C18 23 18 23 19.09765625 25.11328125 C21.63045817 33.21605449 20.93704063 43.07667796 17.328125 50.7265625 C11.95668405 59.92120554 5.16406717 67.42375414 -5 71 C-13.81011621 73.1606848 -24.35311726 73.3832745 -32.65625 69.453125 C-40.56437208 64.55008931 -46.23789809 58.48957336 -50 50 C-50.52851562 48.91589844 -51.05703125 47.83179688 -51.6015625 46.71484375 C-54.48198041 39.06323082 -54.24033927 29.270308 -51.4375 21.5625 C-47.46256825 13.25001114 -41.31428345 6.51428401 -34 1 C-33.443125 0.56429687 -32.88625 0.12859375 -32.3125 -0.3203125 C-23.95401219 -5.65631141 -8.58612509 -4.61142449 0 0 Z " fill="#24263A" transform="translate(170,115)"/>
<path d="M0 0 C61.05 0 122.1 0 185 0 C185.103125 17.2425 185.20625 34.485 185.3125 52.25 C185.35802002 57.67469727 185.40354004 63.09939453 185.45043945 68.68847656 C185.47302246 75.36279297 185.47302246 75.36279297 185.47721863 78.49700928 C185.48484749 80.66486761 185.50233038 82.83270603 185.52787781 85.00042725 C185.82664111 111.70854374 185.82664111 111.70854374 177.7167511 120.46539307 C171.11318034 126.71255092 165.37535619 130.12849761 156.24200439 130.12025452 C155.06693832 130.12162918 153.89187225 130.12300385 152.68119812 130.12442017 C150.75314079 130.11902725 150.75314079 130.11902725 148.78613281 130.11352539 C147.41610211 130.11324325 146.04607126 130.11340177 144.67604065 130.1139679 C140.95944065 130.11425484 137.24287291 130.10837472 133.5262804 130.10139394 C129.6411995 130.09514329 125.75611787 130.09455524 121.87103271 130.09336853 C114.51526238 130.09026027 107.15950691 130.08205367 99.80374312 130.07201904 C91.4289629 130.06084224 83.05418197 130.0553435 74.67939615 130.05032361 C57.45292217 130.03987065 40.22646266 130.02228096 23 130 C23 129.67 23 129.34 23 129 C23.66076727 128.99668985 24.32153454 128.99337971 25.00232506 128.98996925 C41.11214939 128.90859692 57.22187124 128.81645837 73.33156395 128.71247292 C81.12222728 128.66244257 88.91288059 128.61599891 96.70361328 128.578125 C103.49740866 128.54508836 110.29112403 128.50519351 117.08483088 128.45720994 C120.67895989 128.43206043 124.27303661 128.41024572 127.86722946 128.39665604 C131.88865317 128.38132206 135.90982527 128.35067053 139.93115234 128.31884766 C141.11079559 128.31668747 142.29043884 128.31452728 143.50582886 128.31230164 C152.20175701 128.22465446 160.66336184 127.64620268 168.5 123.5625 C169.3146875 123.15128906 170.129375 122.74007812 170.96875 122.31640625 C173.28050771 121.0088501 173.28050771 121.0088501 175 118 C175.66 118 176.32 118 177 118 C177.48212214 116.43840941 177.96055873 114.87568072 178.4375 113.3125 C178.70433594 112.44238281 178.97117188 111.57226562 179.24609375 110.67578125 C180.54428298 106.06821843 181.09728958 102.04151161 181 97.25 C181 86.16165527 181.55682061 75.07948469 182 64 C182.495 33.31 182.495 33.31 183 2 C92.91 1.505 92.91 1.505 1 1 C1 8.26 1 15.52 1 23 C0.67 23 0.34 23 0 23 C0 15.41 0 7.82 0 0 Z " fill="#9FA4B2" transform="translate(16,68)"/>
<path d="M0 0 C1.35726196 0.00616333 1.35726196 0.00616333 2.74194336 0.01245117 C3.72356445 0.01438477 4.70518555 0.01631836 5.71655273 0.01831055 C6.74458008 0.03055664 7.77260742 0.04280273 8.83178711 0.05541992 C9.86368164 0.05606445 10.89557617 0.05670898 11.95874023 0.05737305 C19.62912714 0.10275995 19.62912714 0.10275995 20.76928711 1.24291992 C20.86888332 3.08451015 20.90009121 4.92988959 20.90209961 6.77416992 C20.9040332 8.45446289 20.9040332 8.45446289 20.90600586 10.16870117 C20.90213867 11.34819336 20.89827148 12.52768555 20.89428711 13.74291992 C20.90008789 15.5121582 20.90008789 15.5121582 20.90600586 17.31713867 C20.9047168 18.43733398 20.90342773 19.5575293 20.90209961 20.71166992 C20.90097168 21.74743164 20.89984375 22.78319336 20.89868164 23.8503418 C20.76928711 26.24291992 20.76928711 26.24291992 19.76928711 27.24291992 C18.06156353 27.33005824 16.35030062 27.34992 14.64038086 27.34057617 C13.08867188 27.33574219 13.08867188 27.33574219 11.50561523 27.33081055 C10.41700195 27.32243164 9.32838867 27.31405273 8.20678711 27.30541992 C6.56806641 27.29865234 6.56806641 27.29865234 4.89624023 27.29174805 C2.18720216 27.27991819 -0.52172888 27.26343535 -3.23071289 27.24291992 C-5.23221225 23.2399212 -4.41556498 18.14375262 -4.41821289 13.74291992 C-4.43045898 12.67170898 -4.44270508 11.60049805 -4.45532227 10.49682617 C-4.45725586 9.47459961 -4.45918945 8.45237305 -4.46118164 7.39916992 C-4.46529053 6.45879883 -4.46939941 5.51842773 -4.47363281 4.54956055 C-4.13671527 1.35036765 -3.21343721 0.34993652 0 0 Z " fill="#322D48" transform="translate(38.230712890625,78.757080078125)"/>
<path d="M0 0 C2.3515625 0.375 2.3515625 0.375 4.3515625 2.375 C4.25633684 5.8983494 3.47564751 7.23712777 1.1015625 9.875 C-0.2596875 11.1125 -0.2596875 11.1125 -1.6484375 12.375 C-4.12997222 14.79600949 -6.46133043 17.13357152 -8.5859375 19.875 C-10.26791536 21.91376104 -11.74667227 23.3609211 -13.7734375 25 C-16.76697165 27.24058382 -16.76697165 27.24058382 -18.6484375 30.375 C-19.3084375 30.375 -19.9684375 30.375 -20.6484375 30.375 C-20.89851563 30.94605469 -21.14859375 31.51710937 -21.40625 32.10546875 C-22.82646684 34.70026745 -24.46646399 36.5645481 -26.5234375 38.6875 C-27.20148438 39.40550781 -27.87953125 40.12351563 -28.578125 40.86328125 C-30.6484375 42.375 -30.6484375 42.375 -32.58984375 42.41015625 C-35.53128715 40.93106232 -37.4351281 38.86848942 -39.7109375 36.5 C-40.56816406 35.61570313 -41.42539063 34.73140625 -42.30859375 33.8203125 C-43.08074219 33.01335937 -43.85289062 32.20640625 -44.6484375 31.375 C-45.24011719 30.8284375 -45.83179688 30.281875 -46.44140625 29.71875 C-47.6484375 28.375 -47.6484375 28.375 -47.8984375 25.75 C-47.6484375 23.375 -47.6484375 23.375 -46.6484375 22.375 C-44.0859375 21.875 -44.0859375 21.875 -40.6484375 22.375 C-37.73753702 24.46541327 -35.18619287 26.85012663 -32.6484375 29.375 C-25.45296076 26.3644787 -20.07835741 19.10977265 -15.0859375 13.3125 C-12.45803657 10.27457197 -9.78565954 7.29194288 -7.0234375 4.375 C-6.30929688 3.611875 -5.59515625 2.84875 -4.859375 2.0625 C-2.6484375 0.375 -2.6484375 0.375 0 0 Z " fill="#1B1C2F" transform="translate(184.6484375,122.625)"/>
<path d="M0 0 C4.08594373 3.52236529 4.63992567 5.4931599 7 11 C7 16.28 7 21.56 7 27 C-54.05 27 -115.1 27 -178 27 C-178 23.04 -178 19.08 -178 15 C-177.67 15 -177.34 15 -177 15 C-177 18.63 -177 22.26 -177 26 C-175.64479248 25.9285376 -174.28958496 25.8570752 -172.89331055 25.78344727 C-149.35771228 24.67454163 -125.80863432 24.88456881 -102.25341797 24.93133545 C-96.45996469 24.94171467 -90.66650684 24.9461638 -84.87304688 24.95117188 C-73.58201949 24.96177611 -62.29101205 24.97875755 -51 25 C-51 24.34 -51 23.68 -51 23 C-16.41258161 21.64272544 -16.41258161 21.64272544 0 23 C0.99 23 1.98 23 3 23 C2.88496731 20.4783624 2.75825223 17.9581881 2.625 15.4375 C2.57859375 14.38079102 2.57859375 14.38079102 2.53125 13.30273438 C2.27047442 8.58704259 1.45341877 4.49614504 0 0 Z " fill="#4E27A7" transform="translate(194,34)"/>
<path d="M0 0 C4.15051627 0.5825286 5.03809441 1.25666985 7.5625 4.5 C8.08007812 7.18554687 8.08007812 7.18554687 8.09375 10.21875 C8.09890625 11.31574219 8.1040625 12.41273437 8.109375 13.54296875 C8.09390625 14.68378906 8.0784375 15.82460938 8.0625 17 C8.07796875 18.14082031 8.0934375 19.28164063 8.109375 20.45703125 C8.10421875 21.55402344 8.0990625 22.65101562 8.09375 23.78125 C8.08923828 24.78220703 8.08472656 25.78316406 8.08007812 26.81445312 C7.42800886 30.19783137 6.25768744 31.41476299 3.5625 33.5 C0.33648262 33.5 -1.0541412 32.81204139 -3.54907227 30.78125 C-5.84390848 28.00905225 -6.00371958 26.55980295 -6.15234375 23 C-6.19810547 21.948125 -6.24386719 20.89625 -6.29101562 19.8125 C-6.33258789 18.1728125 -6.33258789 18.1728125 -6.375 16.5 C-6.42978516 15.406875 -6.48457031 14.31375 -6.54101562 13.1875 C-6.82061114 5.1822389 -6.82061114 5.1822389 -5.13891602 2.1875 C-3.4375 0.5 -3.4375 0.5 0 0 Z " fill="#E9EEF3" transform="translate(157.4375,7.5)"/>
<path d="M0 0 C6.3556793 -0.48889841 6.3556793 -0.48889841 9.20336914 1.671875 C11.39668287 4.51403286 11.50296432 5.94403398 11.49609375 9.5 C11.49673828 10.551875 11.49738281 11.60375 11.49804688 12.6875 C11.47806641 13.780625 11.45808594 14.87375 11.4375 16 C11.44458984 17.093125 11.45167969 18.18625 11.45898438 19.3125 C11.38487872 28.61560979 11.38487872 28.61560979 8 32 C4.5 32.5625 4.5 32.5625 1 32 C-3.17108139 27.46454829 -2.40706406 21.77975527 -2.3125 16 C-2.31572266 15.01515625 -2.31894531 14.0303125 -2.32226562 13.015625 C-2.28594974 8.12948788 -2.03042874 4.51049211 0 0 Z " fill="#E5EBF2" transform="translate(55,8)"/>
<path d="M0 0 C0.68513672 -0.00322266 1.37027344 -0.00644531 2.07617188 -0.00976562 C7.17022414 0.04522414 7.17022414 0.04522414 9.4375 2.3125 C9.73828125 5.4296875 9.73828125 5.4296875 9.75 9.1875 C9.76675781 10.42242187 9.78351562 11.65734375 9.80078125 12.9296875 C9.41461512 16.52560006 9.1970365 17.98807714 6.4375 20.3125 C3.44140625 20.84375 3.44140625 20.84375 0 20.8125 C-1.69962891 20.82796875 -1.69962891 20.82796875 -3.43359375 20.84375 C-6.5625 20.3125 -6.5625 20.3125 -8.9453125 18.69140625 C-11.07293167 15.56164762 -11.06415068 13.50922982 -11 9.75 C-10.99806641 8.04650391 -10.99806641 8.04650391 -10.99609375 6.30859375 C-10.5625 3.3125 -10.5625 3.3125 -9.5078125 1.4296875 C-6.47212985 -0.31369651 -3.39838206 -0.08037801 0 0 Z " fill="#363446" transform="translate(46.5625,141.6875)"/>
<path d="M0 0 C1.13308594 -0.01933594 2.26617187 -0.03867188 3.43359375 -0.05859375 C6.5625 0.4375 6.5625 0.4375 8.94140625 2.125 C11.84137401 6.26182148 11.22100439 10.59892428 10.5625 15.4375 C9.3125 18.625 9.3125 18.625 6.5625 20.4375 C1.48475816 21.2176 -3.41824063 21.83519035 -7.78515625 18.8125 C-9.96006334 15.68639241 -9.93952159 13.65596493 -9.875 9.875 C-9.87306641 8.17150391 -9.87306641 8.17150391 -9.87109375 6.43359375 C-9.4375 3.4375 -9.4375 3.4375 -8.3125 1.5625 C-5.53085159 -0.10648905 -3.21892701 0.00365372 0 0 Z " fill="#353247" transform="translate(78.4375,141.5625)"/>
<path d="M0 0 C1.03125 -0.0103125 2.0625 -0.020625 3.125 -0.03125 C6.71224953 0.63161133 7.88183215 1.5545007 10 4.5 C11.10801564 9.62743787 10.77930508 14.12949796 8.1875 18.6875 C3.59645227 21.29809577 -0.82840763 21.42487494 -6 20.5 C-8.30859375 19.37109375 -8.30859375 19.37109375 -10 17.5 C-10.53125 14.50390625 -10.53125 14.50390625 -10.5 11.0625 C-10.5103125 9.92941406 -10.520625 8.79632813 -10.53125 7.62890625 C-10 4.5 -10 4.5 -8.34375 2.12109375 C-5.38210344 0.07262155 -3.57948242 -0.03579482 0 0 Z " fill="#4F3384" transform="translate(174,81.5)"/>
<path d="M0 0 C1.13308594 -0.00773437 2.26617187 -0.01546875 3.43359375 -0.0234375 C6.87680154 0.41502342 8.30116916 0.74224284 10.5625 3.375 C11.05859375 6.40625 11.05859375 6.40625 11 9.875 C10.99871094 11.0196875 10.99742188 12.164375 10.99609375 13.34375 C10.5625 16.375 10.5625 16.375 9.47265625 18.2578125 C6.52650776 19.98091775 3.9406541 19.77111346 0.5625 19.75 C-0.675 19.75773437 -1.9125 19.76546875 -3.1875 19.7734375 C-6.4375 19.375 -6.4375 19.375 -8.3515625 18.2578125 C-9.9716491 15.44888538 -9.83423489 13.09176312 -9.8125 9.875 C-9.82410156 8.15796875 -9.82410156 8.15796875 -9.8359375 6.40625 C-9.4375 3.375 -9.4375 3.375 -8.31640625 1.4921875 C-5.52852247 -0.16547313 -3.21748817 -0.02191252 0 0 Z " fill="#3F3C54" transform="translate(78.4375,81.625)"/>
<path d="M0 0 C1.2375 0.00128906 2.475 0.00257812 3.75 0.00390625 C7 0.4375 7 0.4375 8.9140625 1.59375 C10.47106943 4.23730133 10.3976161 6.32559634 10.375 9.375 C10.38273437 10.41527344 10.39046875 11.45554687 10.3984375 12.52734375 C9.94161231 15.86395908 9.55794786 17.23453266 7 19.4375 C3.75 19.93359375 3.75 19.93359375 0 19.875 C-1.2375 19.87371094 -2.475 19.87242188 -3.75 19.87109375 C-7 19.4375 -7 19.4375 -8.9140625 18.28125 C-10.47106943 15.63769867 -10.3976161 13.54940366 -10.375 10.5 C-10.38273437 9.45972656 -10.39046875 8.41945313 -10.3984375 7.34765625 C-9.46924556 0.56091119 -6.44302785 -0.10067231 0 0 Z " fill="#3C384E" transform="translate(111,81.5625)"/>
<path d="M0 0 C0.68513672 -0.00322266 1.37027344 -0.00644531 2.07617188 -0.00976562 C7.17022414 0.04522414 7.17022414 0.04522414 9.4375 2.3125 C9.703125 5.24609375 9.703125 5.24609375 9.6875 8.75 C9.69265625 9.90371094 9.6978125 11.05742188 9.703125 12.24609375 C9.4375 15.3125 9.4375 15.3125 7.4375 18.3125 C4.85939701 18.61721206 2.57350582 18.73107771 0 18.6875 C-0.68126953 18.69910156 -1.36253906 18.71070313 -2.06445312 18.72265625 C-4.88187854 18.70609939 -7.05492086 18.61155464 -9.51171875 17.1640625 C-11.02483468 14.49782848 -10.95990876 12.3600917 -10.9375 9.3125 C-10.94523437 8.260625 -10.95296875 7.20875 -10.9609375 6.125 C-10.5625 3.3125 -10.5625 3.3125 -9.51171875 1.45703125 C-6.48045086 -0.3228515 -3.40934056 -0.08063719 0 0 Z " fill="#363349" transform="translate(46.5625,112.6875)"/>
<path d="M0 0 C1.71703125 -0.01160156 1.71703125 -0.01160156 3.46875 -0.0234375 C6.5 0.375 6.5 0.375 8.38671875 1.4921875 C10.04689735 4.29992815 9.85982378 6.64242198 9.8125 9.875 C9.80863281 11.0196875 9.80476563 12.164375 9.80078125 13.34375 C9.5 16.375 9.5 16.375 7.5 19.375 C4.34765625 19.7734375 4.34765625 19.7734375 0.5625 19.75 C-0.68402344 19.75773437 -1.93054688 19.76546875 -3.21484375 19.7734375 C-6.5 19.375 -6.5 19.375 -8.41796875 18.2578125 C-10.03252814 15.44836259 -9.89672071 13.0896654 -9.875 9.875 C-9.88660156 8.15796875 -9.88660156 8.15796875 -9.8984375 6.40625 C-9.5 3.375 -9.5 3.375 -8.3828125 1.4921875 C-5.57811249 -0.17201209 -3.23373355 -0.02184955 0 0 Z " fill="#39364B" transform="translate(78.5,111.625)"/>
<path d="M0 0 C1.04027344 -0.00773437 2.08054688 -0.01546875 3.15234375 -0.0234375 C6.49147293 0.43373186 7.86777163 0.80403248 10.0625 3.375 C10.48828125 6.6953125 10.48828125 6.6953125 10.375 10.5 C10.35050781 11.76070312 10.32601562 13.02140625 10.30078125 14.3203125 C10.0625 17.375 10.0625 17.375 9.0625 18.375 C6.80402659 18.85415865 4.52951198 19.25877562 2.25 19.625 C0.38408203 19.94210938 0.38408203 19.94210938 -1.51953125 20.265625 C-4.9375 20.375 -4.9375 20.375 -7.359375 19.359375 C-9.70509544 16.40980573 -9.43306778 14.09133784 -9.375 10.375 C-9.37371094 9.1375 -9.37242187 7.9 -9.37109375 6.625 C-8.9375 3.375 -8.9375 3.375 -7.78125 1.4609375 C-5.13769867 -0.09606943 -3.04940366 -0.0226161 0 0 Z " fill="#3D3851" transform="translate(141.9375,81.625)"/>
<path d="M0 0 C1.35726196 0.00616333 1.35726196 0.00616333 2.74194336 0.01245117 C3.72356445 0.01438477 4.70518555 0.01631836 5.71655273 0.01831055 C6.74458008 0.03055664 7.77260742 0.04280273 8.83178711 0.05541992 C9.86368164 0.05606445 10.89557617 0.05670898 11.95874023 0.05737305 C19.62912714 0.10275995 19.62912714 0.10275995 20.76928711 1.24291992 C20.85666356 3.09661603 20.87626864 4.95359533 20.86694336 6.80932617 C20.8637207 7.9340332 20.86049805 9.05874023 20.85717773 10.2175293 C20.84879883 11.4015332 20.84041992 12.58553711 20.83178711 13.80541992 C20.82727539 14.99329102 20.82276367 16.18116211 20.81811523 17.4050293 C20.80628397 20.35101404 20.78834787 23.29697308 20.76928711 26.24291992 C13.17928711 26.24291992 5.58928711 26.24291992 -2.23071289 26.24291992 C-2.23071289 25.91291992 -2.23071289 25.58291992 -2.23071289 25.24291992 C1.39928711 24.91291992 5.02928711 24.58291992 8.76928711 24.24291992 C8.10928711 23.58291992 7.44928711 22.92291992 6.76928711 22.24291992 C9.73928711 22.24291992 12.70928711 22.24291992 15.76928711 22.24291992 C15.75768555 21.33928711 15.74608398 20.4356543 15.73413086 19.50463867 C15.72510742 18.32514648 15.71608398 17.1456543 15.70678711 15.93041992 C15.69518555 14.75866211 15.68358398 13.5869043 15.67163086 12.37963867 C15.76928711 9.24291992 15.76928711 9.24291992 16.76928711 6.24291992 C11.15928711 6.24291992 5.54928711 6.24291992 -0.23071289 6.24291992 C0.09928711 10.20291992 0.42928711 14.16291992 0.76928711 18.24291992 C-1.23071289 15.24291992 -1.23071289 15.24291992 -2.23071289 11.24291992 C-2.56071289 15.86291992 -2.89071289 20.48291992 -3.23071289 25.24291992 C-3.56071289 25.24291992 -3.89071289 25.24291992 -4.23071289 25.24291992 C-4.28857957 21.45131695 -4.32426343 17.65982681 -4.35571289 13.86791992 C-4.3724707 12.78768555 -4.38922852 11.70745117 -4.40649414 10.59448242 C-4.41293945 9.56323242 -4.41938477 8.53198242 -4.42602539 7.46948242 C-4.43649902 6.51638184 -4.44697266 5.56328125 -4.45776367 4.58129883 C-4.14503986 1.3605798 -3.23611297 0.35240587 0 0 Z " fill="#21224C" transform="translate(38.230712890625,78.757080078125)"/>
<path d="M0 0 C1.71316406 0.07347656 1.71316406 0.07347656 3.4609375 0.1484375 C4.60820313 0.18195313 5.75546875 0.21546875 6.9375 0.25 C9.8359375 0.5234375 9.8359375 0.5234375 11.8359375 1.5234375 C10.78471281 3.88869305 9.68304543 5.70796241 8.0234375 7.7109375 C5.15061681 11.40456411 3.0278739 15.40008173 0.8359375 19.5234375 C-1.55078125 19.64453125 -1.55078125 19.64453125 -4.1640625 19.5234375 C-7.45446068 16.0061153 -7.53911747 12.38802267 -7.66015625 7.8046875 C-6.66349509 3.22161571 -4.65122238 0.76946148 0 0 Z " fill="#464760" transform="translate(108.1640625,111.4765625)"/>
<path d="M0 0 C0.66 0 1.32 0 2 0 C0.83225499 6.67282863 -3.88523579 10.07393713 -9 14 C-14.05913232 17.33389826 -17.73544956 18.12569003 -23.75799561 18.12025452 C-24.93306168 18.12162918 -26.10812775 18.12300385 -27.31880188 18.12442017 C-29.24685921 18.11902725 -29.24685921 18.11902725 -31.21386719 18.11352539 C-32.58389789 18.11324325 -33.95392874 18.11340177 -35.32395935 18.1139679 C-39.04055935 18.11425484 -42.75712709 18.10837472 -46.4737196 18.10139394 C-50.3588005 18.09514329 -54.24388213 18.09455524 -58.12896729 18.09336853 C-65.48473762 18.09026027 -72.84049309 18.08205367 -80.19625688 18.07201904 C-88.5710371 18.06084224 -96.94581803 18.0553435 -105.32060385 18.05032361 C-122.54707783 18.03987065 -139.77353734 18.02228096 -157 18 C-157 17.67 -157 17.34 -157 17 C-156.33923273 16.99668985 -155.67846546 16.99337971 -154.99767494 16.98996925 C-138.88785061 16.90859692 -122.77812876 16.81645837 -106.66843605 16.71247292 C-98.87777272 16.66244257 -91.08711941 16.61599891 -83.29638672 16.578125 C-76.50259134 16.54508836 -69.70887597 16.50519351 -62.91516912 16.45720994 C-59.32104011 16.43206043 -55.72696339 16.41024572 -52.13277054 16.39665604 C-48.11134683 16.38132206 -44.09017473 16.35067053 -40.06884766 16.31884766 C-38.88920441 16.31668747 -37.70956116 16.31452728 -36.49417114 16.31230164 C-27.79824299 16.22465446 -19.33663816 15.64620268 -11.5 11.5625 C-10.6853125 11.15128906 -9.870625 10.74007812 -9.03125 10.31640625 C-6.71949229 9.0088501 -6.71949229 9.0088501 -5 6 C-4.34 6 -3.68 6 -3 6 C-2.67 4.68 -2.34 3.36 -2 2 C-1.34 2 -0.68 2 0 2 C0 1.34 0 0.68 0 0 Z " fill="#767E8D" transform="translate(196,180)"/>
<path d="M0 0 C2.9375 2.1875 2.9375 2.1875 5 5 C5.18341728 8.66834559 4.0460959 9.94238013 1.75 12.8125 C-1 15 -1 15 -3.5625 15.625 C-6 15 -6 15 -8.3125 12.875 C-10.29284835 9.50107319 -10.65454929 7.84547708 -10 4 C-7.2247536 -0.05612936 -4.80517165 -0.88258255 0 0 Z " fill="#24263B" transform="translate(157,127)"/>
<path d="M0 0 C0.99 0.66 1.98 1.32 3 2 C2.814375 2.928125 2.62875 3.85625 2.4375 4.8125 C1.75876119 8.01343771 1.75876119 8.01343771 3 11 C2.01 12.485 2.01 12.485 1 14 C0.34 12.35 -0.32 10.7 -1 9 C-3.75641416 9.49756092 -3.75641416 9.49756092 -6 11 C-6.09498706 12.89129797 -6.18397706 14.7831365 -6.23876953 16.67602539 C-6.6203057 28.70199478 -9.15453777 36.44186137 -18 45 C-18.99 45.66 -19.98 46.32 -21 47 C-21.99 46.67 -22.98 46.34 -24 46 C-23.32453125 45.52691406 -22.6490625 45.05382812 -21.953125 44.56640625 C-16.01088843 40.16125111 -11.55109304 36.44075066 -10 29 C-9.71470843 24.6419254 -9.75746881 20.35882448 -10 16 C-12.64 17.98 -15.28 19.96 -18 22 C-18.33 21.01 -18.66 20.02 -19 19 C-17.9171875 18.195625 -17.9171875 18.195625 -16.8125 17.375 C-14.62202856 15.52526856 -13.06588641 13.95216984 -11.3125 11.75 C-10.549375 10.8425 -9.78625 9.935 -9 9 C-8.34 9 -7.68 9 -7 9 C-6.7525 8.38125 -6.505 7.7625 -6.25 7.125 C-4.77229238 4.61289704 -3.56044823 4.23892656 -1 3 C-0.67 2.01 -0.34 1.02 0 0 Z " fill="#CED1DB" transform="translate(188,129)"/>
<path d="M0 0 C5.61 0 11.22 0 17 0 C15.99609759 4.01560965 14.82479402 5.95119372 12.4375 9.25 C11.47650391 10.58804688 11.47650391 10.58804688 10.49609375 11.953125 C10.00238281 12.62859375 9.50867187 13.3040625 9 14 C4.6816886 13.12341969 2.71748951 11.54783353 0 8 C0 5.36 0 2.72 0 0 Z " fill="#4A6ADD" transform="translate(38,85)"/>
<path d="M0 0 C0.66 0.66 1.32 1.32 2 2 C1.01 3.485 1.01 3.485 0 5 C0.33 5.99 0.66 6.98 1 8 C0.5625 10.1875 0.5625 10.1875 0 12 C1.7699868 12.19532961 3.54104279 12.38098882 5.3125 12.5625 C6.29863281 12.66691406 7.28476563 12.77132812 8.30078125 12.87890625 C11.09930347 13.16602527 11.09930347 13.16602527 14 12 C14.020625 10.741875 14.04125 9.48375 14.0625 8.1875 C14.07410156 7.47980469 14.08570313 6.77210937 14.09765625 6.04296875 C14.08263217 3.79694539 14.08263217 3.79694539 13 1 C14.32 1.66 15.64 2.32 17 3 C17.7613769 12.66102684 17.7613769 12.66102684 15.1875 17.1875 C10.59645227 19.79809577 6.17159237 19.92487494 1 19 C-1.3125 17.875 -1.3125 17.875 -3 16 C-3.49609375 12.96875 -3.49609375 12.96875 -3.4375 9.5 C-3.43621094 8.3553125 -3.43492187 7.210625 -3.43359375 6.03125 C-3 3 -3 3 -1.47265625 1.09375 C-0.98667969 0.7328125 -0.50070313 0.371875 0 0 Z " fill="#3D336E" transform="translate(167,83)"/>
<path d="M0 0 C0.78955078 -0.01224609 1.57910156 -0.02449219 2.39257812 -0.03710938 C4.45057435 -0.04237279 6.50812009 0.06543715 8.5625 0.1875 C9.2225 0.8475 9.8825 1.5075 10.5625 2.1875 C10.00694444 6.74305556 10.00694444 6.74305556 8.5625 8.1875 C5.73833618 8.31413091 2.94955207 8.37270548 0.125 8.375 C-0.66455078 8.38724609 -1.45410156 8.39949219 -2.26757812 8.41210938 C-4.32557435 8.41737279 -6.38312009 8.30956285 -8.4375 8.1875 C-9.0975 7.5275 -9.7575 6.8675 -10.4375 6.1875 C-9.55404742 -1.05681112 -6.4923885 0.00527408 0 0 Z " fill="#2D2C49" transform="translate(77.4375,175.8125)"/>
<path d="M0 0 C4.44859399 0.54389109 8.83693973 0.62657845 13.3125 0.5859375 C14.00980225 0.58034821 14.70710449 0.57475891 15.42553711 0.56900024 C18.3280979 0.54160117 21.23044954 0.50624558 24.1328125 0.46264648 C26.27605008 0.43259004 28.41912022 0.41474363 30.5625 0.3984375 C31.82900391 0.38159912 33.09550781 0.36476074 34.40039062 0.34741211 C37.40625 0.55859375 37.40625 0.55859375 39.40625 2.55859375 C26.93003682 2.69052122 14.45380939 2.82100372 1.9775629 2.94974518 C-3.81843226 3.00959681 -9.61442182 3.06990801 -15.41040039 3.13134766 C-21.02552216 3.19085193 -26.64065623 3.24904706 -32.25580025 3.30641174 C-34.37590564 3.32828611 -36.49600658 3.3505973 -38.61610222 3.37339783 C-53.94245983 3.53780744 -69.26653462 3.58641396 -84.59375 3.55859375 C-84.59375 3.22859375 -84.59375 2.89859375 -84.59375 2.55859375 C-68.76239663 1.40955515 -52.92480059 1.23674872 -37.05834961 1.00634766 C-33.56097173 0.9542941 -30.06370007 0.89723022 -26.56640625 0.83984375 C-25.51203873 0.82626831 -24.4576712 0.81269287 -23.37135315 0.79870605 C-17.80036801 0.70607996 -12.33991188 0.41244746 -6.8089447 -0.27565002 C-4.46475569 -0.4510585 -2.32983987 -0.28806491 0 0 Z " fill="#7635ED" transform="translate(103.59375,56.44140625)"/>
<path d="M0 0 C0.79792969 0.00386719 1.59585938 0.00773438 2.41796875 0.01171875 C3.21589844 0.00785156 4.01382813 0.00398437 4.8359375 0 C10.79136108 0.01011108 10.79136108 0.01011108 11.91796875 1.13671875 C11.6306682 3.47616611 11.29860096 5.81063305 10.91796875 8.13671875 C8.29269686 8.19053981 5.66852162 8.23030188 3.04296875 8.26171875 C2.29660156 8.27847656 1.55023438 8.29523438 0.78125 8.3125 C-1.17397586 8.33011465 -3.12945146 8.23992064 -5.08203125 8.13671875 C-7.08203125 6.13671875 -7.08203125 6.13671875 -7.26953125 3.57421875 C-6.90408527 -1.17657898 -4.14721375 0.00704111 0 0 Z " fill="#2E2F47" transform="translate(44.08203125,175.86328125)"/>
<path d="M0 0 C1.24652344 -0.01675781 2.49304688 -0.03351563 3.77734375 -0.05078125 C7.0625 0.3125 7.0625 0.3125 9.01953125 1.69921875 C10.0625 3.3125 10.0625 3.3125 9.8125 5.4375 C9.0625 7.3125 9.0625 7.3125 8.0625 8.3125 C5.40427343 8.43908222 2.78362576 8.49770214 0.125 8.5 C-0.61685547 8.51224609 -1.35871094 8.52449219 -2.12304688 8.53710938 C-4.06263629 8.54238478 -6.0017371 8.43438902 -7.9375 8.3125 C-8.5975 7.6525 -9.2575 6.9925 -9.9375 6.3125 C-9.14960387 0.00933099 -5.66401468 0.01753565 0 0 Z " fill="#242A4C" transform="translate(106.9375,175.6875)"/>
<path d="M0 0 C4.31852055 3.45481644 5.12615806 6.61130804 6 12 C6 16.62 6 21.24 6 26 C-9.84 26 -25.68 26 -42 26 C-42 25.67 -42 25.34 -42 25 C-27.15 24.34 -12.3 23.68 3 23 C2.65833232 8.35807818 2.65833232 8.35807818 0 0 Z " fill="#4F1DB7" transform="translate(194,34)"/>
<path d="M0 0 C0.33 0 0.66 0 1 0 C1 7.92 1 15.84 1 24 C-6.59 24 -14.18 24 -22 24 C-22 23.67 -22 23.34 -22 23 C-18.37 22.67 -14.74 22.34 -11 22 C-11.66 21.34 -12.32 20.68 -13 20 C-10.03 20 -7.06 20 -4 20 C-4 15.71 -4 11.42 -4 7 C-3.34 7 -2.68 7 -2 7 C-2 6.34 -2 5.68 -2 5 C-1.34 5 -0.68 5 0 5 C0 3.35 0 1.7 0 0 Z " fill="#171535" transform="translate(58,81)"/>
<path d="M0 0 C0.66 0.33 1.32 0.66 2 1 C2.11614929 5.0830942 2.18723457 9.16576377 2.25 13.25 C2.30027344 14.98830078 2.30027344 14.98830078 2.3515625 16.76171875 C2.36445313 17.87675781 2.37734375 18.99179687 2.390625 20.140625 C2.41157227 21.16704102 2.43251953 22.19345703 2.45410156 23.25097656 C1.88208572 26.71382518 0.75260223 27.89047021 -2 30 C-5.46586985 30 -6.72183395 29.24809405 -9.3125 26.9375 C-9.869375 26.298125 -10.42625 25.65875 -11 25 C-10.67 24.34 -10.34 23.68 -10 23 C-9.608125 23.515625 -9.21625 24.03125 -8.8125 24.5625 C-8.214375 25.036875 -7.61625 25.51125 -7 26 C-4.40992227 25.632085 -4.40992227 25.632085 -2 25 C-1.97494385 24.27820557 -1.9498877 23.55641113 -1.92407227 22.81274414 C-1.80848698 19.562465 -1.68559226 16.31250312 -1.5625 13.0625 C-1.52318359 11.92619141 -1.48386719 10.78988281 -1.44335938 9.61914062 C-1.40146484 8.53955078 -1.35957031 7.45996094 -1.31640625 6.34765625 C-1.27974854 5.34742432 -1.24309082 4.34719238 -1.20532227 3.31665039 C-1 1 -1 1 0 0 Z " fill="#97A2B5" transform="translate(163,11)"/>
<path d="M0 0 C0.66 0.33 1.32 0.66 2 1 C2.08714316 4.91652632 2.14043985 8.83280311 2.1875 12.75 C2.22520508 14.41675781 2.22520508 14.41675781 2.26367188 16.1171875 C2.27817383 17.72207031 2.27817383 17.72207031 2.29296875 19.359375 C2.31653442 20.83615723 2.31653442 20.83615723 2.34057617 22.34277344 C1.9412054 25.45872434 1.24555842 26.81880166 -1 29 C-4.6875 29.25 -4.6875 29.25 -8 29 C-8.66 27.35 -9.32 25.7 -10 24 C-8.515 24.99 -8.515 24.99 -7 26 C-4.37468476 26.16713569 -4.37468476 26.16713569 -2 26 C-1.97494385 25.2479126 -1.9498877 24.4958252 -1.92407227 23.72094727 C-1.80849486 20.33460804 -1.68559655 16.94857387 -1.5625 13.5625 C-1.52318359 12.37849609 -1.48386719 11.19449219 -1.44335938 9.97460938 C-1.40146484 8.84990234 -1.35957031 7.72519531 -1.31640625 6.56640625 C-1.27974854 5.52427979 -1.24309082 4.48215332 -1.20532227 3.40844727 C-1 1 -1 1 0 0 Z " fill="#98A0B0" transform="translate(64,11)"/>
<path d="M0 0 C1.85625 0.0309375 1.85625 0.0309375 3.75 0.0625 C3.75 0.3925 3.75 0.7225 3.75 1.0625 C3.03714844 1.22105469 2.32429688 1.37960938 1.58984375 1.54296875 C-6.74835146 3.57421146 -12.38075073 5.84200042 -17.125 13.1875 C-20.02455428 18.12250298 -20.51219077 22.61304809 -20.8125 28.25 C-20.85568359 28.99958984 -20.89886719 29.74917969 -20.94335938 30.52148438 C-21.04922685 32.36828375 -21.1500976 34.21536834 -21.25 36.0625 C-21.91 36.0625 -22.57 36.0625 -23.25 36.0625 C-24.01931458 25.63401347 -23.56446293 17.85902269 -17.25 9.0625 C-11.99265416 3.28759162 -7.9343936 -0.13223989 0 0 Z " fill="#D2BDEA" transform="translate(40.25,23.9375)"/>
<path d="M0 0 C0.33 0 0.66 0 1 0 C1.01030746 0.95800003 1.02061493 1.91600006 1.03123474 2.9030304 C1.12891289 11.923156 1.2316417 20.94321175 1.33933926 29.96322346 C1.39454705 34.60070223 1.44796368 39.23818733 1.49731445 43.87573242 C1.54498955 48.34966244 1.59733359 52.82351553 1.65294075 57.29735374 C1.67335003 59.00579098 1.69206548 60.7142493 1.70907402 62.42272377 C1.73314958 64.81224832 1.76319985 67.20162757 1.79467773 69.59106445 C1.8004332 70.30028549 1.80618866 71.00950653 1.81211853 71.74021912 C1.85750011 74.76299652 2.03606919 77.10820756 3 80 C2.34 80.99 1.68 81.98 1 83 C-0.2063665 79.38090049 -0.13189056 76.08176757 -0.11352539 72.31567383 C-0.11374443 71.14458824 -0.11374443 71.14458824 -0.1139679 69.94984436 C-0.11327114 67.36887841 -0.10548982 64.7879846 -0.09765625 62.20703125 C-0.09579123 60.41769958 -0.09436772 58.6283674 -0.09336853 56.83903503 C-0.08954999 52.12902416 -0.07972533 47.41904411 -0.06866455 42.70904541 C-0.05843621 37.90303972 -0.05386786 33.09702906 -0.04882812 28.29101562 C-0.03810249 18.86066354 -0.02103399 9.43033433 0 0 Z " fill="#DADDE2" transform="translate(17,95)"/>
<path d="M0 0 C0 0.33 0 0.66 0 1 C-4.81954848 1.28821475 -9.63928797 1.57290997 -14.45922852 1.85449219 C-16.09535185 1.9505546 -17.73142122 2.04754115 -19.36743164 2.14550781 C-21.73309604 2.2870001 -24.0989413 2.4250525 -26.46484375 2.5625 C-27.18397446 2.60624756 -27.90310516 2.64999512 -28.64402771 2.69506836 C-33.76981318 2.98825481 -38.865761 3.03539329 -44 3 C-44 2.01 -44 1.02 -44 0 C-13.87347956 -1.40027356 -13.87347956 -1.40027356 0 0 Z " fill="#6022D7" transform="translate(187,57)"/>
<path d="M0 0 C0.66 0 1.32 0 2 0 C0.68520799 7.51309721 -5.55053151 11.48405103 -11.3671875 15.7265625 C-14.69387329 17.3356123 -17.13675286 17.29888628 -20.8125 17.1875 C-22.55466797 17.14689453 -22.55466797 17.14689453 -24.33203125 17.10546875 C-25.21246094 17.07066406 -26.09289062 17.03585938 -27 17 C-27 16.67 -27 16.34 -27 16 C-26.39414063 15.91363281 -25.78828125 15.82726562 -25.1640625 15.73828125 C-18.53957805 14.62740616 -12.67107515 12.67529294 -7 9 C-6.34 8.01 -5.68 7.02 -5 6 C-4.34 6 -3.68 6 -3 6 C-2.67 4.68 -2.34 3.36 -2 2 C-1.34 2 -0.68 2 0 2 C0 1.34 0 0.68 0 0 Z " fill="#788292" transform="translate(196,180)"/>
<path d="M0 0 C0.66 0 1.32 0 2 0 C1.65986985 5.44208234 -1.70296528 8.93668198 -5 13 C-8.78043163 12.22167584 -10.51409299 11.01860137 -13 8 C-13 7.01 -13 6.02 -13 5 C-9 5 -9 5 -7.25 6.5 C-6.8375 6.995 -6.425 7.49 -6 8 C-5.59007812 7.4225 -5.18015625 6.845 -4.7578125 6.25 C-4.21898437 5.5075 -3.68015625 4.765 -3.125 4 C-2.59132813 3.2575 -2.05765625 2.515 -1.5078125 1.75 C-0.76144531 0.88375 -0.76144531 0.88375 0 0 Z " fill="#E5EBF8" transform="translate(52,86)"/>
<path d="M0 0 C2 2 2 2 2.3125 4.5 C2.209375 5.325 2.10625 6.15 2 7 C1.01 7.66 0.02 8.32 -1 9 C-2.01351664 10.65848177 -3.01120795 12.32665961 -4 14 C-8.22292994 19.74097665 -8.22292994 19.74097665 -12 21 C-12 20.34 -12 19.68 -12 19 C-12.66 18.67 -13.32 18.34 -14 18 C-13.48050781 17.5875 -12.96101562 17.175 -12.42578125 16.75 C-6.67871042 11.99087295 -2.38610836 7.15832508 0 0 Z " fill="#C3C8D2" transform="translate(187,163)"/>
<path d="M0 0 C0.33 0 0.66 0 1 0 C1 3.63 1 7.26 1 11 C-1.12493141 11.02693575 -3.24995912 11.04636628 -5.375 11.0625 C-6.55835938 11.07410156 -7.74171875 11.08570312 -8.9609375 11.09765625 C-12 11 -12 11 -14 10 C-14 8.35 -14 6.7 -14 5 C-12.8553125 5.9590625 -12.8553125 5.9590625 -11.6875 6.9375 C-9.11753287 9.14232781 -9.11753287 9.14232781 -6 10 C-5.62875 9.195625 -5.62875 9.195625 -5.25 8.375 C-3.69915043 5.42838581 -1.91694442 2.72082434 0 0 Z " fill="#544CE3" transform="translate(53,89)"/>
<path d="M0 0 C0.33 0 0.66 0 1 0 C1.04951788 4.4840341 1.08577526 8.96792239 1.10986328 13.45214844 C1.11990744 14.97691623 1.13354531 16.50166484 1.15087891 18.02636719 C1.17519738 20.22075138 1.18649889 22.41488042 1.1953125 24.609375 C1.20578613 25.92905273 1.21625977 27.24873047 1.22705078 28.60839844 C1.0179275 31.73220559 0.66605136 33.40580238 -1 36 C-1.66 36 -2.32 36 -3 36 C-3.33 36.66 -3.66 37.32 -4 38 C-3.855625 37.15050781 -3.71125 36.30101562 -3.5625 35.42578125 C-1.6242258 23.62115295 -0.55517166 11.93619074 0 0 Z " fill="#9FACBF" transform="translate(199,144)"/>
<path d="M0 0 C0.66 0.33 1.32 0.66 2 1 C0.9171875 2.051875 0.9171875 2.051875 -0.1875 3.125 C-2.99811134 5.93561134 -5.50078834 8.90886979 -8 12 C-8.76376953 12.88751953 -8.76376953 12.88751953 -9.54296875 13.79296875 C-11.35668119 16.54028115 -11.95666188 19.04823299 -12.6875 22.25 C-12.93886719 23.32765625 -13.19023437 24.4053125 -13.44921875 25.515625 C-13.63097656 26.33546875 -13.81273437 27.1553125 -14 28 C-14.66 27.67 -15.32 27.34 -16 27 C-15.46217223 19.47041123 -13.16283726 14.2442559 -9 8 C-8.34 8 -7.68 8 -7 8 C-6.731875 7.360625 -6.46375 6.72125 -6.1875 6.0625 C-5 4 -5 4 -2 3 C-2 2.34 -2 1.68 -2 1 C-1.34 0.67 -0.68 0.34 0 0 Z " fill="#333041" transform="translate(25,19)"/>
<path d="M0 0 C0.66 0.66 1.32 1.32 2 2 C1.01 3.485 1.01 3.485 0 5 C0.33 5.99 0.66 6.98 1 8 C0.5625 10.1875 0.5625 10.1875 0 12 C1.65 12.33 3.3 12.66 5 13 C3.02 13.99 3.02 13.99 1 15 C1 15.99 1 16.98 1 18 C-0.32 17.34 -1.64 16.68 -3 16 C-3.0810206 13.89646505 -3.13919907 11.79204048 -3.1875 9.6875 C-3.22230469 8.51574219 -3.25710937 7.34398438 -3.29296875 6.13671875 C-3 3 -3 3 -1.48828125 1.08203125 C-0.99714844 0.72496094 -0.50601563 0.36789063 0 0 Z " fill="#53476F" transform="translate(167,83)"/>
<path d="M0 0 C0.33 0 0.66 0 1 0 C1.55641303 13.46210412 1.07041748 22.02259097 -8.31640625 32.37109375 C-10 34 -10 34 -13 36 C-13.99 35.67 -14.98 35.34 -16 35 C-15.32453125 34.52691406 -14.6490625 34.05382812 -13.953125 33.56640625 C-7.77758139 28.98829372 -4.40729877 25.29759754 -2 18 C-1.67 17.34 -1.34 16.68 -1 16 C-0.7677354 13.28737884 -0.58063765 10.59226874 -0.4375 7.875 C-0.39431641 7.12089844 -0.35113281 6.36679688 -0.30664062 5.58984375 C-0.2005168 3.72678112 -0.09974999 1.86341476 0 0 Z " fill="#929CB2" transform="translate(180,140)"/>
<path d="M0 0 C0.33 0 0.66 0 1 0 C0.56577288 5.42783897 -0.47342864 8.80623946 -4 13 C-8.64984623 16.24407876 -13.46038811 16.85310023 -19 16 C-19.66 15.34 -20.32 14.68 -21 14 C-19.93072266 13.99613281 -19.93072266 13.99613281 -18.83984375 13.9921875 C-12.75343383 13.74643744 -8.77882375 13.12050452 -4.37109375 8.765625 C-2.22786934 6.0056893 -1.1228789 3.302585 0 0 Z " fill="#C9A5E7" transform="translate(75,35)"/>
<path d="M0 0 C2.31 0 4.62 0 7 0 C7 5.61 7 11.22 7 17 C2.5 11.375 2.5 11.375 2.75 7.1875 C2.78609375 6.39730469 2.8221875 5.60710938 2.859375 4.79296875 C2.90578125 4.20128906 2.9521875 3.60960937 3 3 C2.34 2.67 1.68 2.34 1 2 C0.67 1.34 0.34 0.68 0 0 Z " fill="#9970E8" transform="translate(38,23)"/>
<path d="M0 0 C7.26 0 14.52 0 22 0 C23.33332095 2.6666419 22.67102033 4.16680303 22 7 C21.34 7 20.68 7 20 7 C19.67 7.66 19.34 8.32 19 9 C18.67 8.01 18.34 7.02 18 6 C15.98491642 5.26676204 15.98491642 5.26676204 14 5 C14.33 4.01 14.66 3.02 15 2 C10.05 1.67 5.1 1.34 0 1 C0 0.67 0 0.34 0 0 Z " fill="#2F334D" transform="translate(36,79)"/>
<path d="M0 0 C1.32 0.33 2.64 0.66 4 1 C-0.29 5.29 -4.58 9.58 -9 14 C-11.475 13.01 -11.475 13.01 -14 12 C-13.34 11.67 -12.68 11.34 -12 11 C-11.34 11.33 -10.68 11.66 -10 12 C-9.731875 11.360625 -9.46375 10.72125 -9.1875 10.0625 C-8 8 -8 8 -5 7 C-5 6.34 -5 5.68 -5 5 C-4.34 5 -3.68 5 -3 5 C-3 4.34 -3 3.68 -3 3 C-1.75 1.3125 -1.75 1.3125 0 0 Z " fill="#A4B0C3" transform="translate(163,139)"/>
<path d="M0 0 C0.99 0 1.98 0 3 0 C2.67 0.99 2.34 1.98 2 3 C1.98067246 4.60418552 2.00585494 6.20919839 2.0625 7.8125 C2.07014537 13.08780822 1.92892384 16.87563454 -1.7734375 20.953125 C-5.64617585 24.6099114 -5.64617585 24.6099114 -8 26 C-10.2578125 25.69140625 -10.2578125 25.69140625 -12 25 C-11.45730469 24.69707031 -10.91460937 24.39414062 -10.35546875 24.08203125 C-9.64003906 23.66308594 -8.92460937 23.24414062 -8.1875 22.8125 C-7.12595703 22.20341797 -7.12595703 22.20341797 -6.04296875 21.58203125 C-2.25374549 18.64773791 -1.12950531 15.95398948 -0.48828125 11.23046875 C-0.41600365 9.88347709 -0.35765414 8.53567347 -0.3125 7.1875 C-0.27833984 6.49462891 -0.24417969 5.80175781 -0.20898438 5.08789062 C-0.12713656 3.39247151 -0.06187635 1.69626542 0 0 Z " fill="#752FD9" transform="translate(175,26)"/>
<path d="M0 0 C0.33 0 0.66 0 1 0 C1 7.92 1 15.84 1 24 C-1.97 24 -4.94 24 -8 24 C-8 23.67 -8 23.34 -8 23 C-5.36 23 -2.72 23 0 23 C0 19.04 0 15.08 0 11 C-0.99 11.33 -1.98 11.66 -3 12 C-2.67 9.69 -2.34 7.38 -2 5 C-1.34 5 -0.68 5 0 5 C0 3.35 0 1.7 0 0 Z " fill="#090C2D" transform="translate(58,81)"/>
<path d="M0 0 C1.85772162 0.08984301 3.71247985 0.24611861 5.5625 0.4375 C7.08037109 0.59025391 7.08037109 0.59025391 8.62890625 0.74609375 C9.80259766 0.87177734 9.80259766 0.87177734 11 1 C11 2.32 11 3.64 11 5 C7.37 5 3.74 5 0 5 C-0.33 3.68 -0.66 2.36 -1 1 C-0.67 0.67 -0.34 0.34 0 0 Z " fill="#463E62" transform="translate(168,97)"/>
<path d="M0 0 C3.68529813 3.44753696 4.93695419 5.33670309 5.1328125 10.50390625 C5.13546258 11.85677074 5.13267935 13.20965471 5.125 14.5625 C5.12886719 15.24763672 5.13273438 15.93277344 5.13671875 16.63867188 C5.12669335 21.7466133 5.12669335 21.7466133 4 24 C2.68 23.67 1.36 23.34 0 23 C0.99 23 1.98 23 3 23 C2.88496731 20.4783624 2.75825223 17.9581881 2.625 15.4375 C2.5940625 14.73302734 2.563125 14.02855469 2.53125 13.30273438 C2.27047442 8.58704259 1.45341877 4.49614504 0 0 Z " fill="#5C27C3" transform="translate(194,34)"/>
<path d="M0 0 C0.66 0.33 1.32 0.66 2 1 C1.46890625 1.51046875 0.9378125 2.0209375 0.390625 2.546875 C-5.37999648 8.48598178 -7.94767052 14.02021892 -10 22 C-10.33 22 -10.66 22 -11 22 C-11.49958613 16.00496648 -10.29458471 12.0425155 -7 7 C-4.375 4.125 -4.375 4.125 -2 2 C-1.34 1.34 -0.68 0.68 0 0 Z " fill="#AF7AF7" transform="translate(30,29)"/>
<path d="M0 0 C1.70428601 2.55642901 2.07200864 3.61295355 1.5 6.6875 C0 9 0 9 -2.8125 10.125 C-6 10 -6 10 -8.875 7.5625 C-9.57625 6.716875 -10.2775 5.87125 -11 5 C-10.67 4.34 -10.34 3.68 -10 3 C-9.608125 3.515625 -9.21625 4.03125 -8.8125 4.5625 C-7.05093861 6.26538732 -7.05093861 6.26538732 -4.4375 6 C-1.75624123 5.20869776 -1.75624123 5.20869776 -0.6875 2.4375 C-0.460625 1.633125 -0.23375 0.82875 0 0 Z " fill="#8795A7" transform="translate(163,31)"/>
<path d="M0 0 C0.33 0.99 0.66 1.98 1 3 C-4.28 8.28 -9.56 13.56 -15 19 C-15.66 18.67 -16.32 18.34 -17 18 C-15.91332031 16.93072266 -15.91332031 16.93072266 -14.8046875 15.83984375 C-9.63826191 10.73055506 -4.6201281 5.61907471 0 0 Z " fill="#2D3243" transform="translate(172,133)"/>
<path d="M0 0 C1.27617188 0.02320313 2.55234375 0.04640625 3.8671875 0.0703125 C5.78917969 0.09738281 5.78917969 0.09738281 7.75 0.125 C9.23113281 0.15980469 9.23113281 0.15980469 10.7421875 0.1953125 C10.7421875 0.5253125 10.7421875 0.8553125 10.7421875 1.1953125 C4.3071875 1.6903125 4.3071875 1.6903125 -2.2578125 2.1953125 C-2.5878125 3.8453125 -2.9178125 5.4953125 -3.2578125 7.1953125 C-0.2878125 7.1953125 2.6821875 7.1953125 5.7421875 7.1953125 C5.7421875 7.5253125 5.7421875 7.8553125 5.7421875 8.1953125 C4.11754908 8.24926728 2.49240209 8.28808445 0.8671875 8.3203125 C-0.03773437 8.34351563 -0.94265625 8.36671875 -1.875 8.390625 C-4.2578125 8.1953125 -4.2578125 8.1953125 -6.2578125 6.1953125 C-5.7191413 1.88594286 -4.4799618 0.26858284 0 0 Z " fill="#5D5E75" transform="translate(103.2578125,175.8046875)"/>
<path d="M0 0 C0.33 0 0.66 0 1 0 C1 6.27 1 12.54 1 19 C0.34 19 -0.32 19 -1 19 C-1.22171552 16.39634072 -1.42784859 13.79303507 -1.625 11.1875 C-1.68945312 10.44951172 -1.75390625 9.71152344 -1.8203125 8.95117188 C-2.2265625 3.33984375 -2.2265625 3.33984375 0 0 Z " fill="#404563" transform="translate(52,13)"/>
<path d="M0 0 C0.66 0 1.32 0 2 0 C0.75913019 6.35945776 -3.14469324 9.18350306 -8 13 C-8 9.47967572 -7.29648649 8.5614657 -5 6 C-4.34 6 -3.68 6 -3 6 C-2.67 4.68 -2.34 3.36 -2 2 C-1.34 2 -0.68 2 0 2 C0 1.34 0 0.68 0 0 Z " fill="#70788F" transform="translate(196,180)"/>
<path d="M0 0 C0.33 0 0.66 0 1 0 C1.02505615 0.77190674 1.0501123 1.54381348 1.07592773 2.33911133 C1.19184007 5.83041181 1.31458824 9.32143922 1.4375 12.8125 C1.47681641 14.02744141 1.51613281 15.24238281 1.55664062 16.49414062 C1.59853516 17.65751953 1.64042969 18.82089844 1.68359375 20.01953125 C1.72025146 21.09307861 1.75690918 22.16662598 1.79467773 23.27270508 C1.89541847 26.09311553 1.89541847 26.09311553 3 29 C2.34 29.99 1.68 30.98 1 32 C-0.13917218 28.58248347 -0.11338481 25.96512063 -0.09765625 22.36328125 C-0.09443359 21.06455078 -0.09121094 19.76582031 -0.08789062 18.42773438 C-0.07953531 17.05598892 -0.07107037 15.68424413 -0.0625 14.3125 C-0.05748335 12.92903805 -0.05292073 11.54557437 -0.04882812 10.16210938 C-0.03702529 6.77469605 -0.02056019 3.38736967 0 0 Z " fill="#C6CCD3" transform="translate(17,146)"/>
<path d="M0 0 C2.97 0 5.94 0 9 0 C8.01 0.33 7.02 0.66 6 1 C6.33 1.99 6.66 2.98 7 4 C5.02 4.33 3.04 4.66 1 5 C0.67 5.99 0.34 6.98 0 8 C0 5.36 0 2.72 0 0 Z " fill="#6949E6" transform="translate(38,85)"/>
<path d="M0 0 C2 2 2 2 2.5 4.3125 C1.74664479 8.36178428 -0.78589375 9.62156138 -4 12 C-4.66 12.66 -5.32 13.32 -6 14 C-5.46604696 9.46139912 -3.5802582 6.70912117 -1 3 C-0.67 2.01 -0.34 1.02 0 0 Z " fill="#D0D5E0" transform="translate(187,163)"/>
<path d="M0 0 C2.97 0 5.94 0 9 0 C9 0.99 9 1.98 9 3 C5.24600202 4.2039337 1.66782588 4.09877617 -2.25 4.0625 C-3.51328125 4.05347656 -4.7765625 4.04445313 -6.078125 4.03515625 C-7.04234375 4.02355469 -8.0065625 4.01195313 -9 4 C-9 3.67 -9 3.34 -9 3 C-3.555 2.505 -3.555 2.505 2 2 C1.34 1.34 0.68 0.68 0 0 Z " fill="#181525" transform="translate(45,101)"/>
<path d="M0 0 C2.31 0 4.62 0 7 0 C7 6.27 7 12.54 7 19 C5 17 5 17 4.8046875 13.5234375 C4.81798507 12.14049032 4.84183768 10.75761346 4.875 9.375 C4.88402344 8.66859375 4.89304687 7.9621875 4.90234375 7.234375 C4.92592397 5.48943902 4.96179539 3.74467705 5 2 C3.35 2 1.7 2 0 2 C0 1.34 0 0.68 0 0 Z " fill="#362752" transform="translate(40,21)"/>
<path d="M0 0 C0.66 0.33 1.32 0.66 2 1 C1.278125 1.70125 0.55625 2.4025 -0.1875 3.125 C-2.14939608 5.07022274 -3.90664273 7.08769025 -5.625 9.25 C-8 12 -8 12 -11 13 C-10.34 11.35 -9.68 9.7 -9 8 C-8.34 8 -7.68 8 -7 8 C-6.731875 7.360625 -6.46375 6.72125 -6.1875 6.0625 C-5 4 -5 4 -2 3 C-2 2.34 -2 1.68 -2 1 C-1.34 0.67 -0.68 0.34 0 0 Z " fill="#3D3B55" transform="translate(25,19)"/>
<path d="M0 0 C1.32 0 2.64 0 4 0 C4.33 1.65 4.66 3.3 5 5 C5.99 5 6.98 5 8 5 C8 5.99 8 6.98 8 8 C4.21479387 7.45925627 2.40822445 5.92427254 0 3 C0 2.01 0 1.02 0 0 Z " fill="#EDF2FB" transform="translate(39,91)"/>
<path d="M0 0 C0.99 0.66 1.98 1.32 3 2 C2.814375 2.928125 2.62875 3.85625 2.4375 4.8125 C1.75876119 8.01343771 1.75876119 8.01343771 3 11 C2.01 12.485 2.01 12.485 1 14 C-0.55234071 10.41021211 -1 7.89497319 -1 4 C-1.66 3.67 -2.32 3.34 -3 3 C-2.34 3 -1.68 3 -1 3 C-0.67 2.01 -0.34 1.02 0 0 Z " fill="#BFC3CC" transform="translate(188,129)"/>
<path d="M0 0 C0.75 1.6875 0.75 1.6875 1 4 C-1.08117669 7.12176503 -2.86651634 8.91101089 -6 11 C-8.1875 10.625 -8.1875 10.625 -10 10 C-9.0925 9.46375 -8.185 8.9275 -7.25 8.375 C-3.79561944 6.09936542 -2.08948315 3.53604841 0 0 Z " fill="#CDA8E5" transform="translate(173,39)"/>
<path d="M0 0 C4.62 0 9.24 0 14 0 C13.67 0.99 13.34 1.98 13 3 C9.04 3 5.08 3 1 3 C0.67 2.01 0.34 1.02 0 0 Z " fill="#4A485F" transform="translate(72,159)"/>
<path d="M0 0 C0 0.99 0 1.98 0 3 C-1.75 4.60546875 -1.75 4.60546875 -4 6.1875 C-4.7425 6.71730469 -5.485 7.24710938 -6.25 7.79296875 C-6.8275 8.19128906 -7.405 8.58960938 -8 9 C-8.33 8.01 -8.66 7.02 -9 6 C-3.375 1.125 -3.375 1.125 0 0 Z " fill="#D4D8E1" transform="translate(178,142)"/>
<path d="M0 0 C0.763125 0.639375 1.52625 1.27875 2.3125 1.9375 C4.88246713 4.14232781 4.88246713 4.14232781 8 5 C8.33 4.01 8.66 3.02 9 2 C9.99 3.485 9.99 3.485 11 5 C9.10114904 6.89885096 6.42752097 6.12367506 3.91015625 6.1328125 C2 6 2 6 0 5 C0 3.35 0 1.7 0 0 Z " fill="#6471D7" transform="translate(39,94)"/>
<path d="M0 0 C2.08466413 3.38757921 2.42905061 6.05273438 2 10 C1.01 10.66 0.02 11.32 -1 12 C-1.33 8.37 -1.66 4.74 -2 1 C-1.34 0.67 -0.68 0.34 0 0 Z " fill="#0A0B1C" transform="translate(208,40)"/>
<path d="M0 0 C1.98 0 3.96 0 6 0 C5.2575 0.8971875 5.2575 0.8971875 4.5 1.8125 C2.71723582 3.97029994 2.71723582 3.97029994 3 7 C2.34 7 1.68 7 1 7 C1 8.65 1 10.3 1 12 C0.67 12 0.34 12 0 12 C0 8.04 0 4.08 0 0 Z " fill="#8D57D7" transform="translate(74,25)"/>
<path d="M0 0 C1.32 0.33 2.64 0.66 4 1 C2.76302083 2.46484375 1.52604167 3.9296875 0.2890625 5.39453125 C-0.89201099 6.8655046 -1.95358529 8.43037794 -3 10 C-3 9.34 -3 8.68 -3 8 C-3.66 7.67 -4.32 7.34 -5 7 C-3.35 4.69 -1.7 2.38 0 0 Z " fill="#29283D" transform="translate(149,2)"/>
<path d="M0 0 C0 0.66 0 1.32 0 2 C-5.75 5 -5.75 5 -8 5 C-8 4.34 -8 3.68 -8 3 C-8.99 2.67 -9.98 2.34 -11 2 C-9.54494642 1.47007308 -8.08581873 0.9513211 -6.625 0.4375 C-5.81289062 0.14746094 -5.00078125 -0.14257812 -4.1640625 -0.44140625 C-2 -1 -2 -1 0 0 Z " fill="#BEC1CC" transform="translate(171,184)"/>
<path d="M0 0 C3.32382587 4.33542505 4.12018668 6.47141274 4 12 C3.34 12 2.68 12 2 12 C1.47026689 10.37787941 0.95146893 8.75218416 0.4375 7.125 C0.14746094 6.22007813 -0.14257812 5.31515625 -0.44140625 4.3828125 C-1 2 -1 2 0 0 Z " fill="#161926" transform="translate(71,4)"/>
<path d="M0 0 C0.99 0.33 1.98 0.66 3 1 C3.73046875 2.84765625 3.73046875 2.84765625 4.1875 5.0625 C4.34605469 5.79597656 4.50460938 6.52945312 4.66796875 7.28515625 C4.83232422 8.13400391 4.83232422 8.13400391 5 9 C4.01 9 3.02 9 2 9 C0.50178941 5.62902617 0 3.79557881 0 0 Z " fill="#0E0F1E" transform="translate(170,6)"/>
<path d="M0 0 C-2.96283313 2.38672669 -5.94270509 4.7353371 -9 7 C-9.33 6.01 -9.66 5.02 -10 4 C-6.58908673 0.88145073 -4.68377325 -0.53528837 0 0 Z " fill="#2D2D42" transform="translate(58,0)"/>
<path d="M0 0 C0.33 0 0.66 0 1 0 C1.23268915 6.28260706 0.40454548 11.88019467 -1 18 C-1.33 18 -1.66 18 -2 18 C-2.20852314 11.59370576 -2.1583195 6.07027358 0 0 Z " fill="#B2B4C1" transform="translate(127,137)"/>
<path d="M0 0 C0.66 0.33 1.32 0.66 2 1 C1.67 2.98 1.34 4.96 1 7 C0.01 7.33 -0.98 7.66 -2 8 C-2.33 8.66 -2.66 9.32 -3 10 C-2.49287967 6.28111761 -1.88391785 3.26545761 0 0 Z " fill="#8A95A5" transform="translate(198,172)"/>
<path d="M0 0 C0.66 0.33 1.32 0.66 2 1 C0.95125002 3.62187494 0.35068687 4.79371361 -2.125 6.25 C-2.74375 6.4975 -3.3625 6.745 -4 7 C-4.99 6.01 -5.98 5.02 -7 4 C-5.68 4.33 -4.36 4.66 -3 5 C-2.690625 4.360625 -2.38125 3.72125 -2.0625 3.0625 C-1 1 -1 1 0 0 Z " fill="#B2BACA" transform="translate(156,146)"/>
<path d="M0 0 C2 2 2 2 2.1953125 3.9453125 C2.13020833 5.96354167 2.06510417 7.98177083 2 10 C0.68 10.33 -0.64 10.66 -2 11 C-1.34 7.37 -0.68 3.74 0 0 Z " fill="#462383" transform="translate(180,85)"/>
<path d="M0 0 C0.33 0.66 0.66 1.32 1 2 C-0.43522725 5.94687492 -1.67830089 9.31100548 -5 12 C-4.52389341 7.00088076 -2.96837781 4.02167317 0 0 Z " fill="#3D4154" transform="translate(124,128)"/>
<path d="M0 0 C0.66 0.66 1.32 1.32 2 2 C1.690625 2.86625 1.38125 3.7325 1.0625 4.625 C0.07508101 7.76150738 -0.53581059 10.75067413 -1 14 C-1.33 14 -1.66 14 -2 14 C-2.05389087 12.04196493 -2.09274217 10.08351091 -2.125 8.125 C-2.14820313 7.03445312 -2.17140625 5.94390625 -2.1953125 4.8203125 C-2 2 -2 2 0 0 Z " fill="#474256" transform="translate(38,114)"/>
<path d="M0 0 C4.62 0 9.24 0 14 0 C10.77191036 2.15205976 10.10393587 2.19328822 6.4375 2 C4.11163783 1.83289965 4.11163783 1.83289965 2 2 C1.34 2.66 0.68 3.32 0 4 C-0.33 3.34 -0.66 2.68 -1 2 C-0.67 1.34 -0.34 0.68 0 0 Z " fill="#4A4858" transform="translate(104,82)"/>
<path d="M0 0 C1.13643966 3.40931897 0.86747764 4.00335456 -0.4375 7.1875 C-0.86869141 8.26064453 -0.86869141 8.26064453 -1.30859375 9.35546875 C-1.53675781 9.89816406 -1.76492187 10.44085938 -2 11 C-2.33 11 -2.66 11 -3 11 C-3.125 4.375 -3.125 4.375 -2 1 C-1.34 0.67 -0.68 0.34 0 0 Z " fill="#A870F9" transform="translate(22,40)"/>
<path d="M0 0 C0.33 0 0.66 0 1 0 C1 4.62 1 9.24 1 14 C-0.65 14 -2.3 14 -4 14 C-3.51917969 13.62230469 -3.03835937 13.24460937 -2.54296875 12.85546875 C-0.46337042 10.35468595 -0.50158423 8.52693196 -0.3125 5.3125 C-0.24675781 4.31863281 -0.18101563 3.32476563 -0.11328125 2.30078125 C-0.07589844 1.54152344 -0.03851563 0.78226563 0 0 Z " fill="#D6E1E9" transform="translate(61,24)"/>
<path d="M0 0 C0.66 0.33 1.32 0.66 2 1 C1 4 1 4 -1 5 C-2.99960012 5.039992 -5.00047242 5.04346799 -7 5 C-4.702779 3.25728062 -2.40133271 1.60088848 0 0 Z " fill="#919BA9" transform="translate(186,190)"/>
<path d="M0 0 C0.33 0 0.66 0 1 0 C1.04898438 0.75925781 1.09796875 1.51851563 1.1484375 2.30078125 C1.22320312 3.29464844 1.29796875 4.28851563 1.375 5.3125 C1.44460937 6.29863281 1.51421875 7.28476563 1.5859375 8.30078125 C1.83865472 11.21528433 1.83865472 11.21528433 4 14 C3.01 14 2.02 14 1 14 C0 13 0 13 -0.09765625 10.05859375 C-0.08605469 8.86363281 -0.07445313 7.66867188 -0.0625 6.4375 C-0.05347656 5.23996094 -0.04445313 4.04242188 -0.03515625 2.80859375 C-0.02355469 1.88175781 -0.01195313 0.95492187 0 0 Z " fill="#B9B8C2" transform="translate(68,117)"/>
<path d="M0 0 C1.98 0 3.96 0 6 0 C5.01 1.485 5.01 1.485 4 3 C3.34 3 2.68 3 2 3 C1.67 3.99 1.34 4.98 1 6 C0.34 5.01 -0.32 4.02 -1 3 C-0.67 2.01 -0.34 1.02 0 0 Z " fill="#2F53F9" transform="translate(44,86)"/>
<path d="M0 0 C0.99 0.99 1.98 1.98 3 3 C1.515 5.475 1.515 5.475 0 8 C-0.66 7.67 -1.32 7.34 -2 7 C-1.34 4.69 -0.68 2.38 0 0 Z " fill="#2E2E46" transform="translate(46,7)"/>
<path d="M0 0 C0.99 0 1.98 0 3 0 C2.67 0.99 2.34 1.98 2 3 C1.93197033 4.72795352 1.91504355 6.45835365 1.9375 8.1875 C1.94652344 9.08855469 1.95554688 9.98960938 1.96484375 10.91796875 C1.97644531 11.60503906 1.98804688 12.29210938 2 13 C1.34 13 0.68 13 0 13 C0 8.71 0 4.42 0 0 Z " fill="#7F32F0" transform="translate(175,26)"/>
<path d="M0 0 C0.66 0.66 1.32 1.32 2 2 C0 5 -2 8 -4 11 C-3.48964169 6.6109185 -2.47785723 3.66291938 0 0 Z " fill="#D5BDEB" transform="translate(23,33)"/>
</svg>
