<svg width="100%" height="100%" style="overflow:visible;" preserveAspectRatio="none" viewBox="0 0 30.42 30" fill="none" xmlns="http://www.w3.org/2000/svg">
<g clip-path="url(#clip0_542_9942)">
<rect y="0.5" width="30.4186" height="30" rx="5" fill="white"/>
<path d="M9.34884 0.500066C9.9333 0.882959 10.2077 1.245 10.4651 1.89541C10.4651 2.0796 10.4651 2.26379 10.4651 2.45355C13.6423 2.45355 16.8195 2.45355 20.093 2.45355C20.1391 2.13123 20.1851 1.8089 20.2326 1.47681C20.4697 1.06197 20.7768 0.716319 21.2093 0.500066C22.9392 0.346593 22.9392 0.346593 23.6076 0.805298C23.691 0.934804 23.7745 1.06431 23.8605 1.19774C23.9439 1.31573 24.0274 1.43373 24.1134 1.5553C24.2791 1.89541 24.2791 1.89541 24.2791 2.45355C24.4059 2.45652 24.4059 2.45652 24.5352 2.45955C25.9993 2.54289 27.2044 3.17838 28.186 4.26751C28.9529 5.32574 29.3267 6.32702 29.3592 7.64329C29.3618 7.73928 29.3645 7.83527 29.3672 7.93416C29.3755 8.25245 29.3818 8.57073 29.3879 8.88906C29.3931 9.11746 29.3984 9.34587 29.4037 9.57428C29.4597 12.1447 29.468 14.7156 29.4677 17.2865C29.4677 17.9655 29.4696 18.6445 29.472 19.3235C29.4736 19.8566 29.4738 20.3896 29.4738 20.9227C29.4739 21.1733 29.4745 21.4239 29.4756 21.6745C29.4829 23.5047 29.4628 25.2096 28.6047 26.8722C28.5529 26.9758 28.501 27.0794 28.4477 27.1861C28.3872 27.307 28.3872 27.307 28.3256 27.4303C28.2335 27.4303 28.1414 27.4303 28.0465 27.4303C27.9923 27.5555 27.9923 27.5555 27.937 27.6832C27.3342 28.7685 25.9748 29.1295 24.8625 29.459C24.5026 29.5351 24.171 29.5418 23.803 29.5429C23.6497 29.5437 23.4964 29.5445 23.3384 29.5453C23.1708 29.5455 23.0032 29.5456 22.8306 29.5458C22.6535 29.5465 22.4765 29.5472 22.2941 29.5479C21.8085 29.5497 21.323 29.5506 20.8374 29.5513C20.5335 29.5517 20.2295 29.5522 19.9255 29.5529C18.9728 29.5548 18.0201 29.5561 17.0673 29.5567C15.9708 29.5573 14.8744 29.5597 13.7779 29.5638C12.9285 29.5668 12.079 29.5682 11.2296 29.5684C10.7232 29.5685 10.2169 29.5693 9.71056 29.5718C9.14421 29.5746 8.5779 29.574 8.01154 29.5731C7.84621 29.5743 7.68088 29.5756 7.51054 29.577C5.74143 29.5682 4.14635 29.2242 2.79561 28.0239C1.75084 26.9242 1.10271 25.5408 1.09575 24.0232C1.09475 23.8732 1.09375 23.7232 1.09272 23.5686C1.09235 23.4055 1.09197 23.2423 1.09158 23.0742C1.09067 22.9012 1.08975 22.7282 1.08881 22.55C1.08605 21.9774 1.08442 21.4049 1.08303 20.8324C1.08247 20.6345 1.08189 20.4367 1.08131 20.2389C1.07865 19.3088 1.07667 18.3787 1.0755 17.4486C1.07414 16.3786 1.07048 15.3087 1.06483 14.2388C1.0606 13.4095 1.05855 12.5802 1.05809 11.7509C1.05777 11.2567 1.05654 10.7626 1.053 10.2684C1.04912 9.71574 1.04974 9.16315 1.0507 8.6105C1.04892 8.4493 1.04713 8.2881 1.04529 8.12202C1.05403 6.74419 1.32954 5.35113 2.23256 4.26751C2.32465 4.26751 2.41675 4.26751 2.51163 4.26751C2.54904 4.17829 2.58646 4.08908 2.625 3.99716C2.7907 3.70937 2.7907 3.70937 3.20931 3.56983C3.20931 3.47774 3.20931 3.38565 3.20931 3.29076C4.19557 2.74507 5.00415 2.35187 6.13954 2.31402C6.19134 2.14422 6.24314 1.97443 6.29651 1.79948C6.48256 1.32552 6.67606 0.931665 7.09666 0.618343C7.79953 0.340016 8.61435 0.375503 9.34884 0.500066Z" fill="#E1E5EB"/>
<path d="M9.34884 0.500066C9.9333 0.882959 10.2077 1.245 10.4651 1.89541C10.4651 2.0796 10.4651 2.26379 10.4651 2.45355C13.6423 2.45355 16.8195 2.45355 20.093 2.45355C20.1391 2.13123 20.1851 1.8089 20.2326 1.47681C20.4697 1.06197 20.7768 0.716319 21.2093 0.500066C22.9392 0.346593 22.9392 0.346593 23.6076 0.805298C23.691 0.934804 23.7745 1.06431 23.8605 1.19774C23.9439 1.31573 24.0274 1.43373 24.1134 1.5553C24.2791 1.89541 24.2791 1.89541 24.2791 2.45355C24.4059 2.45652 24.4059 2.45652 24.5352 2.45955C25.9993 2.54289 27.2044 3.17838 28.186 4.26751C28.9529 5.32574 29.3267 6.32702 29.3592 7.64329C29.3618 7.73928 29.3645 7.83527 29.3672 7.93416C29.3755 8.25245 29.3818 8.57073 29.3879 8.88906C29.3931 9.11746 29.3984 9.34587 29.4037 9.57428C29.4597 12.1447 29.468 14.7156 29.4677 17.2865C29.4677 17.9655 29.4696 18.6445 29.472 19.3235C29.4736 19.8566 29.4738 20.3896 29.4738 20.9227C29.4739 21.1733 29.4745 21.4239 29.4756 21.6745C29.4829 23.5047 29.4628 25.2096 28.6047 26.8722C28.5529 26.9758 28.501 27.0794 28.4477 27.1861C28.3872 27.307 28.3872 27.307 28.3256 27.4303C28.2335 27.4303 28.1414 27.4303 28.0465 27.4303C27.9923 27.5555 27.9923 27.5555 27.937 27.6832C27.3342 28.7685 25.9748 29.1295 24.8625 29.459C24.5026 29.5351 24.171 29.5418 23.803 29.5429C23.6497 29.5437 23.4964 29.5445 23.3384 29.5453C23.1708 29.5455 23.0032 29.5456 22.8306 29.5458C22.6535 29.5465 22.4765 29.5472 22.2941 29.5479C21.8085 29.5497 21.323 29.5506 20.8374 29.5513C20.5335 29.5517 20.2295 29.5522 19.9255 29.5529C18.9728 29.5548 18.0201 29.5561 17.0673 29.5567C15.9708 29.5573 14.8744 29.5597 13.7779 29.5638C12.9285 29.5668 12.079 29.5682 11.2296 29.5684C10.7232 29.5685 10.2169 29.5693 9.71056 29.5718C9.14421 29.5746 8.5779 29.574 8.01154 29.5731C7.84621 29.5743 7.68088 29.5756 7.51054 29.577C5.74143 29.5682 4.14635 29.2242 2.79561 28.0239C1.75084 26.9242 1.10271 25.5408 1.09575 24.0232C1.09475 23.8732 1.09375 23.7232 1.09272 23.5686C1.09235 23.4055 1.09197 23.2423 1.09158 23.0742C1.09067 22.9012 1.08975 22.7282 1.08881 22.55C1.08605 21.9774 1.08442 21.4049 1.08303 20.8324C1.08247 20.6345 1.08189 20.4367 1.08131 20.2389C1.07865 19.3088 1.07667 18.3787 1.0755 17.4486C1.07414 16.3786 1.07048 15.3087 1.06483 14.2388C1.0606 13.4095 1.05855 12.5802 1.05809 11.7509C1.05777 11.2567 1.05654 10.7626 1.053 10.2684C1.04912 9.71574 1.04974 9.16315 1.0507 8.6105C1.04892 8.4493 1.04713 8.2881 1.04529 8.12202C1.05403 6.74419 1.32954 5.35113 2.23256 4.26751C2.32465 4.26751 2.41675 4.26751 2.51163 4.26751C2.54904 4.17829 2.58646 4.08908 2.625 3.99716C2.7907 3.70937 2.7907 3.70937 3.20931 3.56983C3.20931 3.47774 3.20931 3.38565 3.20931 3.29076C4.19557 2.74507 5.00415 2.35187 6.13954 2.31402C6.19134 2.14422 6.24314 1.97443 6.29651 1.79948C6.48256 1.32552 6.67606 0.931665 7.09666 0.618343C7.79953 0.340016 8.61435 0.375503 9.34884 0.500066ZM2.23256 9.98844C2.23203 13.9811 2.23203 13.9811 2.25099 17.9737C2.25581 18.6431 2.25929 19.3125 2.25985 19.982C2.26045 20.6398 2.26442 21.2976 2.27071 21.9554C2.27251 22.2031 2.27313 22.4509 2.27249 22.6986C2.26682 24.6074 2.26682 24.6074 3.06977 26.314C3.13983 26.4145 3.20988 26.515 3.28206 26.6186C3.94962 27.4719 4.79124 28.0327 5.87556 28.1915C6.37342 28.2164 6.86675 28.2191 7.3652 28.2138C7.55491 28.2143 7.74462 28.2151 7.93432 28.2162C8.44547 28.2181 8.95652 28.2158 9.46766 28.2125C10.0045 28.2097 10.5413 28.2105 11.0781 28.2108C11.9787 28.2108 12.8794 28.2081 13.7801 28.2036C14.8197 28.1984 15.8592 28.1972 16.8989 28.1982C17.9018 28.1991 18.9048 28.1976 19.9077 28.1949C20.3334 28.1937 20.759 28.1933 21.1846 28.1936C21.686 28.1937 22.1873 28.1917 22.6886 28.1881C22.9592 28.1866 23.2297 28.1872 23.5003 28.1878C25.0971 28.1722 26.1135 27.6889 27.2442 26.5582C27.9198 25.4965 28.1286 24.5072 28.1099 23.263C28.11 23.0428 28.11 23.0428 28.1101 22.8182C28.1097 22.3479 28.1054 21.8777 28.101 21.4074C28.1002 21.1151 28.0996 20.8229 28.0993 20.5306C28.0964 19.4526 28.0886 18.3746 28.0814 17.2966C28.0699 14.8849 28.0584 12.4732 28.0465 9.98844C19.5279 9.98844 11.0093 9.98844 2.23256 9.98844Z" fill="#1F1E33"/>
<path d="M6.27907 3.70922C6.28266 3.8506 6.28626 3.99197 6.28997 4.13764C6.29783 4.32623 6.30583 4.51482 6.31395 4.70341C6.31593 4.79622 6.31791 4.88903 6.31995 4.98466C6.36258 5.85449 6.70812 6.33923 7.27325 6.97085C7.86996 7.30812 8.40134 7.33793 9.06976 7.19759C9.62445 6.87877 9.98263 6.55203 10.186 5.94178C10.2321 5.20503 10.2781 4.46829 10.3256 3.70922C13.5488 3.70922 16.7721 3.70922 20.093 3.70922C20.1621 4.6762 20.1621 4.6762 20.2326 5.66271C20.5691 6.34486 20.8359 6.79976 21.4884 7.19759C22.0085 7.2906 22.502 7.28189 23.0233 7.19759C23.4849 6.84903 23.9446 6.41142 24.0445 5.81604C24.0489 5.71885 24.0533 5.62167 24.0578 5.52154C24.0659 5.36303 24.0659 5.36303 24.0741 5.20132C24.0784 5.09169 24.0828 4.98206 24.0872 4.8691C24.0953 4.70223 24.0953 4.70223 24.1036 4.53198C24.1167 4.25778 24.1283 3.98351 24.1395 3.70922C25.1537 3.6944 25.7632 3.90487 26.5334 4.56932C26.8315 4.86616 27.0372 5.13849 27.2093 5.52317C27.2564 5.62606 27.3036 5.72894 27.3521 5.83495C27.5092 6.2797 27.5513 6.67521 27.5843 7.14527C27.5964 7.30247 27.6084 7.45968 27.6208 7.62165C27.6279 8.0348 27.6279 8.0348 27.4884 8.45341C27.0821 8.58884 26.8808 8.60156 26.4642 8.57604C26.3406 8.56929 26.2171 8.56253 26.0898 8.55557C25.8885 8.54385 25.8885 8.54385 25.6831 8.53189C23.7732 8.43303 21.8654 8.43965 19.9535 8.45341C19.9535 8.5455 19.9535 8.63759 19.9535 8.73248C18.2174 8.7509 16.4814 8.76911 14.7453 8.78706C13.9388 8.7954 13.1322 8.80381 12.3257 8.8124C5.37254 8.8863 5.37254 8.8863 2.37209 8.87201C2.2836 7.40724 2.32016 6.34645 3.2093 5.10457C4.13935 4.0651 4.88519 3.6961 6.27907 3.70922Z" fill="#9253F6"/>
<path d="M23.7209 16.5465C24.1483 16.8517 24.1483 16.8517 24.4186 17.1046C24.2183 17.7556 24.2183 17.7556 23.9041 17.9419C23.5814 17.9419 23.5814 17.9419 23.1475 17.7358C22.564 17.4782 22.0407 17.4608 21.4099 17.4709C21.2573 17.4685 21.2573 17.4685 21.1017 17.466C19.8856 17.4726 19.1134 18.0861 18.2791 18.9186C17.5732 19.8598 17.4572 20.9864 17.5814 22.1279C17.8795 23.3382 18.5413 24.2459 19.5638 24.9459C20.1274 25.2539 20.6285 25.284 21.2616 25.2674C21.3661 25.2655 21.4706 25.2637 21.5782 25.2617C22.7146 25.2192 23.4677 24.9496 24.2616 24.1163C25.0814 23.0745 25.1715 22.1389 25.1909 20.8585C25.2116 20.0984 25.2116 20.0984 25.4515 19.7542C25.6744 19.6163 25.6744 19.6163 25.9622 19.6163C26.2326 19.7558 26.2326 19.7558 26.3857 20.0507C26.7391 21.1813 26.6424 22.5572 26.1388 23.6246C25.3893 24.9076 24.4415 25.9545 23.0233 26.4535C21.7939 26.755 20.3228 26.786 19.1642 26.2376C18.0608 25.5535 17.2691 24.7078 16.7442 23.5233C16.6704 23.372 16.5967 23.2207 16.5207 23.0649C16.1188 21.9972 16.1525 20.6307 16.5436 19.5552C17.0982 18.3953 17.9561 17.4555 18.9767 16.686C19.0544 16.6252 19.1321 16.5645 19.2122 16.5018C20.3785 15.7573 22.5229 15.9031 23.7209 16.5465Z" fill="#24263A"/>
<path d="M2.23256 9.98828C10.7512 9.98828 19.2698 9.98828 28.0465 9.98828C28.0609 12.3942 28.0753 14.8001 28.0901 17.279C28.0965 18.0359 28.1028 18.7928 28.1094 19.5727C28.1125 20.504 28.1125 20.504 28.1131 20.9414C28.1142 21.2438 28.1166 21.5463 28.1202 21.8488C28.1619 25.5755 28.1619 25.5755 27.0302 26.7974C26.1088 27.6691 25.3082 28.1457 24.0338 28.1446C23.8698 28.1448 23.7058 28.145 23.5369 28.1452C23.2679 28.1444 23.2679 28.1444 22.9934 28.1437C22.8022 28.1436 22.6111 28.1436 22.4199 28.1437C21.9013 28.1438 21.3827 28.1429 20.8641 28.142C20.322 28.1411 19.7799 28.141 19.2378 28.1408C18.2114 28.1404 17.185 28.1393 16.1587 28.1379C14.9901 28.1363 13.8215 28.1355 12.6529 28.1348C10.2492 28.1334 7.84555 28.1309 5.44186 28.1278C5.44186 28.0818 5.44186 28.0357 5.44186 27.9883C5.53406 27.9878 5.62626 27.9874 5.72126 27.9869C7.96914 27.9755 10.217 27.9627 12.4649 27.9482C13.5519 27.9412 14.639 27.9347 15.7261 27.9294C16.6741 27.9248 17.622 27.9192 18.57 27.9125C19.0715 27.909 19.573 27.906 20.0745 27.9041C20.6356 27.902 21.1967 27.8977 21.7578 27.8932C21.9224 27.8929 22.087 27.8926 22.2566 27.8923C23.47 27.8801 24.6507 27.7994 25.7442 27.2296C25.8579 27.1722 25.9715 27.1148 26.0887 27.0557C26.4112 26.8732 26.4112 26.8732 26.6512 26.4534C26.7433 26.4534 26.8354 26.4534 26.9302 26.4534C26.9975 26.2355 27.0643 26.0174 27.1308 25.7993C27.168 25.6779 27.2053 25.5565 27.2436 25.4314C27.4248 24.7885 27.5019 24.2266 27.4884 23.558C27.4884 22.0108 27.5661 20.4645 27.6279 18.9185C27.697 14.6362 27.697 14.6362 27.7674 10.2674C15.1967 10.1983 15.1967 10.1983 2.37209 10.1278C2.37209 11.1408 2.37209 12.1539 2.37209 13.1976C2.32605 13.1976 2.28 13.1976 2.23256 13.1976C2.23256 12.1385 2.23256 11.0794 2.23256 9.98828Z" fill="#9FA4B2"/>
<path d="M5.33452 11.4893C5.5239 11.4901 5.5239 11.4901 5.71711 11.491C5.85408 11.4913 5.99105 11.4915 6.13217 11.4918C6.27562 11.4935 6.41907 11.4952 6.56686 11.497C6.71084 11.4971 6.85483 11.4972 7.00318 11.4973C8.07346 11.5036 8.07346 11.5036 8.23256 11.6627C8.24645 11.9197 8.25081 12.1771 8.25109 12.4345C8.25136 12.669 8.25136 12.669 8.25163 12.9081C8.25109 13.0727 8.25055 13.2373 8.25 13.4069C8.25081 13.6537 8.25081 13.6537 8.25163 13.9056C8.25145 14.0619 8.25127 14.2182 8.25109 14.3793C8.25093 14.5238 8.25077 14.6683 8.25061 14.8172C8.23256 15.1511 8.23256 15.1511 8.09302 15.2906C7.85473 15.3028 7.61595 15.3055 7.37736 15.3042C7.16084 15.3035 7.16084 15.3035 6.93995 15.3029C6.78805 15.3017 6.63615 15.3005 6.47965 15.2993C6.25099 15.2984 6.25099 15.2984 6.01771 15.2974C5.63971 15.2958 5.26172 15.2935 4.88372 15.2906C4.60444 14.732 4.71839 14.0209 4.71802 13.4069C4.71631 13.2574 4.7146 13.1079 4.71284 12.9539C4.71257 12.8113 4.7123 12.6687 4.71203 12.5217C4.71145 12.3905 4.71088 12.2593 4.71029 12.1241C4.7573 11.6777 4.88613 11.5381 5.33452 11.4893Z" fill="#322D48"/>
<path d="M25.7649 17.6104C26.093 17.6627 26.093 17.6627 26.3721 17.9417C26.3588 18.4334 26.2499 18.6202 25.9186 18.9883C25.7287 19.1609 25.7287 19.1609 25.5349 19.3371C25.1886 19.6749 24.8633 20.0011 24.5669 20.3836C24.3322 20.6681 24.1258 20.87 23.843 21.0987C23.4253 21.4114 23.4253 21.4114 23.1628 21.8487C23.0707 21.8487 22.9786 21.8487 22.8837 21.8487C22.8488 21.9284 22.8139 22.0081 22.778 22.0902C22.5798 22.4522 22.351 22.7124 22.064 23.0086C21.9693 23.1088 21.8747 23.209 21.7773 23.3122C21.4884 23.5231 21.4884 23.5231 21.2175 23.528C20.807 23.3217 20.5414 23.0339 20.2238 22.7034C20.1042 22.58 19.9846 22.4566 19.8614 22.3295C19.7536 22.2169 19.6459 22.1043 19.5349 21.9883C19.4523 21.912 19.3698 21.8357 19.2847 21.7572C19.1163 21.5697 19.1163 21.5697 19.0814 21.2034C19.1163 20.872 19.1163 20.872 19.2558 20.7324C19.6134 20.6627 19.6134 20.6627 20.093 20.7324C20.4992 21.0241 20.8552 21.3569 21.2093 21.7092C22.2133 21.2891 22.9633 20.2768 23.6599 19.4679C24.0266 19.044 24.3995 18.6278 24.7849 18.2208C24.8845 18.1143 24.9842 18.0079 25.0868 17.8981C25.3954 17.6627 25.3954 17.6627 25.7649 17.6104Z" fill="#1B1C2F"/>
<path d="M27.0698 5.24414C27.6399 5.73563 27.7172 6.01063 28.0465 6.77902C28.0465 7.51577 28.0465 8.25251 28.0465 9.01158C19.5279 9.01158 11.0093 9.01158 2.23256 9.01158C2.23256 8.45902 2.23256 7.90647 2.23256 7.33716C2.27861 7.33716 2.32465 7.33716 2.37209 7.33716C2.37209 7.84368 2.37209 8.35019 2.37209 8.87205C2.56119 8.86208 2.75029 8.8521 2.94512 8.84183C6.22916 8.6871 9.51508 8.71641 12.8019 8.72293C13.6102 8.72438 14.4186 8.725 15.227 8.7257C16.8025 8.72718 18.378 8.72955 19.9535 8.73251C19.9535 8.64042 19.9535 8.54833 19.9535 8.45344C24.7796 8.26406 24.7796 8.26406 27.0698 8.45344C27.2079 8.45344 27.346 8.45344 27.4884 8.45344C27.4723 8.10159 27.4546 7.74993 27.436 7.39821C27.4296 7.25076 27.4296 7.25076 27.423 7.10034C27.3866 6.44233 27.2726 5.87151 27.0698 5.24414Z" fill="#4E27A7"/>
<path d="M21.968 1.54663C22.5472 1.62791 22.671 1.72198 23.0233 2.17454C23.0955 2.54927 23.0955 2.54927 23.0974 2.9725C23.0981 3.12557 23.0988 3.27864 23.0996 3.43635C23.0974 3.59553 23.0952 3.75472 23.093 3.91872C23.0952 4.07791 23.0973 4.23709 23.0996 4.4011C23.0988 4.55417 23.0981 4.70724 23.0974 4.86494C23.0968 5.00461 23.0961 5.14428 23.0955 5.28818C23.0045 5.76028 22.8412 5.93009 22.4651 6.22105C22.015 6.22105 21.8209 6.12506 21.4728 5.84169C21.1526 5.45487 21.1303 5.25265 21.1096 4.75593C21.1032 4.60916 21.0968 4.46239 21.0902 4.31117C21.0844 4.08237 21.0844 4.08237 21.0785 3.84896C21.0708 3.69643 21.0632 3.5439 21.0553 3.38675C21.0163 2.26973 21.0163 2.26973 21.251 1.85186C21.4884 1.6164 21.4884 1.6164 21.968 1.54663Z" fill="#E9EEF3"/>
<path d="M7.67442 1.61624C8.56126 1.54802 8.56126 1.54802 8.95861 1.84952C9.26465 2.2461 9.27948 2.44564 9.27852 2.94182C9.27861 3.08859 9.2787 3.23536 9.2788 3.38659C9.27601 3.53911 9.27322 3.69164 9.27035 3.84879C9.27134 4.00132 9.27233 4.15385 9.27335 4.311C9.26301 5.60911 9.26301 5.60911 8.7907 6.08135C8.30232 6.15984 8.30232 6.15984 7.81395 6.08135C7.23194 5.4485 7.33855 4.65527 7.35174 3.84879C7.35129 3.71137 7.35084 3.57395 7.35038 3.43237C7.35545 2.75058 7.3911 2.24561 7.67442 1.61624Z" fill="#E5EBF2"/>
<path d="M6.4971 20.2704C6.5927 20.2699 6.6883 20.2695 6.7868 20.269C7.49759 20.2767 7.49759 20.2767 7.81396 20.593C7.85593 21.028 7.85593 21.028 7.85756 21.5523C7.8599 21.7247 7.86224 21.897 7.86465 22.0745C7.81076 22.5763 7.7804 22.7803 7.39535 23.1047C6.97729 23.1788 6.97729 23.1788 6.4971 23.1744C6.25994 23.1766 6.25994 23.1766 6.01799 23.1788C5.5814 23.1047 5.5814 23.1047 5.24891 22.8785C4.95204 22.4418 4.95326 22.1554 4.96221 21.6308C4.96248 21.3931 4.96248 21.3931 4.96276 21.1506C5.02326 20.7326 5.02326 20.7326 5.17043 20.4699C5.59401 20.2266 6.0229 20.2592 6.4971 20.2704Z" fill="#363446"/>
<path d="M10.9448 20.2528C11.1029 20.2501 11.261 20.2474 11.4239 20.2446C11.8605 20.3139 11.8605 20.3139 12.1924 20.5493C12.597 21.1265 12.5105 21.7317 12.4186 22.4069C12.2442 22.8516 12.2442 22.8516 11.8605 23.1045C11.1519 23.2134 10.4678 23.2996 9.85846 22.8778C9.55499 22.4416 9.55786 22.1583 9.56686 21.6307C9.56713 21.393 9.56713 21.393 9.5674 21.1505C9.6279 20.7325 9.6279 20.7325 9.78488 20.4708C10.173 20.2379 10.4956 20.2533 10.9448 20.2528Z" fill="#353247"/>
<path d="M24.2791 11.872C24.423 11.8706 24.5669 11.8692 24.7151 11.8677C25.2157 11.9602 25.3789 12.0889 25.6744 12.4999C25.829 13.2154 25.7832 13.8436 25.4215 14.4796C24.7809 14.8439 24.1635 14.8616 23.4419 14.7325C23.1197 14.575 23.1197 14.575 22.8837 14.3139C22.8096 13.8958 22.8096 13.8958 22.814 13.4156C22.8125 13.2575 22.8111 13.0994 22.8096 12.9365C22.8837 12.4999 22.8837 12.4999 23.1148 12.168C23.5281 11.8822 23.7796 11.867 24.2791 11.872Z" fill="#4F3384"/>
<path d="M10.9448 11.8895C11.1029 11.8884 11.261 11.8873 11.4239 11.8862C11.9043 11.9474 12.1031 11.9931 12.4186 12.3604C12.4878 12.7834 12.4878 12.7834 12.4797 13.2674C12.4795 13.4271 12.4793 13.5869 12.4791 13.7514C12.4186 14.1744 12.4186 14.1744 12.2665 14.4371C11.8554 14.6775 11.4946 14.6483 11.0233 14.6453C10.8506 14.6464 10.6779 14.6475 10.5 14.6486C10.0465 14.593 10.0465 14.593 9.77943 14.4371C9.55337 14.0452 9.57255 13.7163 9.57558 13.2674C9.57396 13.0278 9.57396 13.0278 9.57231 12.7834C9.62791 12.3604 9.62791 12.3604 9.78434 12.0977C10.1733 11.8664 10.4958 11.8864 10.9448 11.8895Z" fill="#3F3C54"/>
<path d="M15.4884 11.8809C15.661 11.881 15.8337 11.8812 16.0116 11.8814C16.4651 11.9419 16.4651 11.9419 16.7322 12.1033C16.9495 12.4721 16.9392 12.7635 16.936 13.189C16.9371 13.3342 16.9382 13.4793 16.9393 13.6289C16.8756 14.0944 16.822 14.2857 16.4651 14.5931C16.0116 14.6623 16.0116 14.6623 15.4884 14.6541C15.3157 14.6539 15.143 14.6538 14.9651 14.6536C14.5116 14.5931 14.5116 14.5931 14.2446 14.4317C14.0273 14.0629 14.0375 13.7715 14.0407 13.346C14.0396 13.2008 14.0385 13.0557 14.0374 12.9061C14.1671 11.9591 14.5893 11.8668 15.4884 11.8809Z" fill="#3C384E"/>
<path d="M6.49709 16.2239C6.59269 16.2234 6.68829 16.223 6.78679 16.2225C7.49759 16.2302 7.49759 16.2302 7.81395 16.5466C7.85102 16.9559 7.85102 16.9559 7.84884 17.4448C7.84956 17.6058 7.85028 17.7668 7.85102 17.9326C7.81395 18.3605 7.81395 18.3605 7.53488 18.7791C7.17515 18.8216 6.85619 18.8375 6.49709 18.8314C6.40203 18.8331 6.30697 18.8347 6.20903 18.8363C5.8159 18.834 5.51268 18.8208 5.16988 18.6189C4.95874 18.2468 4.9678 17.9485 4.97093 17.5233C4.96985 17.3765 4.96877 17.2298 4.96766 17.0785C5.02325 16.6861 5.02325 16.6861 5.16988 16.4272C5.59284 16.1788 6.02137 16.2126 6.49709 16.2239Z" fill="#363349"/>
<path d="M10.9535 16.0755C11.1931 16.0739 11.1931 16.0739 11.4375 16.0723C11.8605 16.1279 11.8605 16.1279 12.1237 16.2837C12.3554 16.6755 12.3293 17.0024 12.3227 17.4534C12.3221 17.6132 12.3216 17.7729 12.321 17.9375C12.2791 18.3604 12.2791 18.3604 12 18.779C11.5601 18.8346 11.5601 18.8346 11.032 18.8314C10.858 18.8324 10.6841 18.8335 10.5049 18.8346C10.0465 18.779 10.0465 18.779 9.77889 18.6231C9.5536 18.2311 9.57255 17.902 9.57558 17.4534C9.57396 17.2139 9.57396 17.2139 9.57231 16.9694C9.62791 16.5465 9.62791 16.5465 9.78379 16.2837C10.1751 16.0515 10.5023 16.0725 10.9535 16.0755Z" fill="#39364B"/>
<path d="M19.8052 11.8895C19.9504 11.8884 20.0955 11.8873 20.2451 11.8862C20.711 11.95 20.9031 12.0017 21.2093 12.3604C21.2687 12.8237 21.2687 12.8237 21.2529 13.3546C21.2495 13.5305 21.2461 13.7064 21.2426 13.8877C21.2093 14.3139 21.2093 14.3139 21.0698 14.4535C20.7546 14.5203 20.4373 14.5768 20.1192 14.6279C19.8588 14.6721 19.8588 14.6721 19.5932 14.7173C19.1163 14.7325 19.1163 14.7325 18.7783 14.5908C18.451 14.1792 18.489 13.8557 18.4971 13.3372C18.4973 13.1645 18.4975 12.9918 18.4976 12.8139C18.5581 12.3604 18.5581 12.3604 18.7195 12.0934C19.0883 11.8761 19.3797 11.8863 19.8052 11.8895Z" fill="#3D3851"/>
<path d="M5.33452 11.4893C5.5239 11.4901 5.5239 11.4901 5.71711 11.491C5.85408 11.4913 5.99105 11.4915 6.13217 11.4918C6.27562 11.4935 6.41906 11.4952 6.56686 11.497C6.71084 11.4971 6.85483 11.4972 7.00318 11.4973C8.07346 11.5036 8.07346 11.5036 8.23256 11.6627C8.24475 11.9213 8.24748 12.1805 8.24618 12.4394C8.24573 12.5963 8.24528 12.7533 8.24482 12.915C8.24365 13.0802 8.24248 13.2454 8.24128 13.4156C8.24065 13.5813 8.24002 13.7471 8.23937 13.9179C8.23772 14.3289 8.23521 14.74 8.23256 15.1511C7.17349 15.1511 6.11442 15.1511 5.02325 15.1511C5.02325 15.105 5.02325 15.059 5.02325 15.0115C5.52976 14.9655 6.03628 14.9194 6.55814 14.872C6.46604 14.7799 6.37395 14.6878 6.27907 14.5929C6.69349 14.5929 7.1079 14.5929 7.53488 14.5929C7.53326 14.4668 7.53164 14.3407 7.52998 14.2108C7.52872 14.0463 7.52746 13.8817 7.52616 13.7121C7.52454 13.5486 7.52292 13.3851 7.52125 13.2166C7.53488 12.779 7.53488 12.779 7.67442 12.3604C6.89162 12.3604 6.10883 12.3604 5.30232 12.3604C5.34837 12.9129 5.39442 13.4655 5.44186 14.0348C5.16279 13.6162 5.16279 13.6162 5.02325 13.058C4.97721 13.7027 4.93116 14.3473 4.88372 15.0115C4.83767 15.0115 4.79162 15.0115 4.74418 15.0115C4.73611 14.4825 4.73113 13.9534 4.72674 13.4243C4.7244 13.2736 4.72206 13.1229 4.71966 12.9676C4.71876 12.8237 4.71786 12.6798 4.71693 12.5315C4.71547 12.3985 4.71401 12.2655 4.7125 12.1285C4.75614 11.6791 4.88296 11.5384 5.33452 11.4893Z" fill="#21224C"/>
<path d="M15.0927 16.0549C15.3317 16.0652 15.3317 16.0652 15.5756 16.0756C15.7357 16.0803 15.8958 16.085 16.0607 16.0898C16.4651 16.128 16.4651 16.128 16.7442 16.2675C16.5975 16.5975 16.4438 16.8514 16.2122 17.1309C15.8114 17.6463 15.5152 18.2038 15.2093 18.7791C14.8763 18.796 14.8763 18.796 14.5116 18.7791C14.0525 18.2883 14.0407 17.7835 14.0238 17.144C14.1629 16.5045 14.4437 16.1623 15.0927 16.0549Z" fill="#464760"/>
<path d="M27.3488 25.6162C27.4409 25.6162 27.533 25.6162 27.6279 25.6162C27.465 26.5473 26.8067 27.0219 26.093 27.5697C25.3871 28.0349 24.8741 28.1454 24.0338 28.1446C23.8698 28.1448 23.7058 28.145 23.5369 28.1452C23.2679 28.1444 23.2679 28.1444 22.9934 28.1437C22.8023 28.1436 22.6111 28.1437 22.4199 28.1437C21.9013 28.1438 21.3827 28.143 20.8641 28.142C20.322 28.1411 19.7799 28.141 19.2378 28.1409C18.2114 28.1404 17.1851 28.1393 16.1587 28.1379C14.9901 28.1363 13.8215 28.1356 12.6529 28.1349C10.2492 28.1334 7.84556 28.1309 5.44186 28.1278C5.44186 28.0818 5.44186 28.0357 5.44186 27.9883C5.53406 27.9878 5.62626 27.9874 5.72126 27.9869C7.96914 27.9755 10.217 27.9627 12.4649 27.9482C13.5519 27.9412 14.639 27.9347 15.7261 27.9294C16.6741 27.9248 17.622 27.9193 18.57 27.9126C19.0715 27.9091 19.573 27.906 20.0745 27.9041C20.6356 27.902 21.1967 27.8977 21.7578 27.8933C21.9224 27.893 22.087 27.8927 22.2566 27.8923C23.47 27.8801 24.6507 27.7994 25.7442 27.2296C25.8579 27.1722 25.9715 27.1148 26.0887 27.0557C26.4112 26.8733 26.4112 26.8733 26.6512 26.4534C26.7433 26.4534 26.8354 26.4534 26.9302 26.4534C26.9763 26.2692 27.0223 26.085 27.0698 25.8953C27.1619 25.8953 27.254 25.8953 27.3488 25.8953C27.3488 25.8032 27.3488 25.7111 27.3488 25.6162Z" fill="#767E8D"/>
<path d="M21.907 18.2208C22.3169 18.5261 22.3169 18.5261 22.6047 18.9185C22.6302 19.4304 22.4715 19.6081 22.1512 20.0086C21.7674 20.3139 21.7674 20.3139 21.4099 20.4011C21.0698 20.3139 21.0698 20.3139 20.7471 20.0173C20.4708 19.5466 20.4203 19.3155 20.5116 18.779C20.8989 18.213 21.2365 18.0977 21.907 18.2208Z" fill="#24263B"/>
<path d="M26.2326 18.5C26.3707 18.5921 26.5088 18.6842 26.6512 18.7791C26.6253 18.9086 26.5994 19.0381 26.5727 19.1715C26.478 19.6182 26.478 19.6182 26.6512 20.0349C26.513 20.2421 26.513 20.2421 26.3721 20.4535C26.28 20.2233 26.1879 19.993 26.093 19.7558C25.7084 19.8252 25.7084 19.8252 25.3953 20.0349C25.3821 20.2988 25.3697 20.5628 25.362 20.8269C25.3088 22.5049 24.9552 23.5849 23.7209 24.7791C23.5828 24.8712 23.4447 24.9633 23.3023 25.0581C23.1642 25.0121 23.026 24.966 22.8837 24.9186C22.978 24.8526 23.0722 24.7866 23.1693 24.7186C23.9985 24.1039 24.6208 23.5848 24.8372 22.5465C24.877 21.9384 24.8711 21.3408 24.8372 20.7326C24.4688 21.0088 24.1005 21.2851 23.7209 21.5698C23.6749 21.4316 23.6288 21.2935 23.5814 21.1512C23.7325 21.0389 23.7325 21.0389 23.8866 20.9244C24.1923 20.6663 24.4094 20.4468 24.6541 20.1395C24.7606 20.0129 24.867 19.8863 24.9767 19.7558C25.0688 19.7558 25.1609 19.7558 25.2558 19.7558C25.2903 19.6695 25.3249 19.5831 25.3605 19.4942C25.5667 19.1437 25.7358 19.0915 26.093 18.9186C26.1391 18.7805 26.1851 18.6423 26.2326 18.5Z" fill="#CED1DB"/>
<path d="M5.30232 12.3604C6.08511 12.3604 6.8679 12.3604 7.67442 12.3604C7.53434 12.9207 7.3709 13.1908 7.03779 13.651C6.9037 13.8378 6.9037 13.8378 6.76689 14.0282C6.698 14.1225 6.62911 14.2167 6.55814 14.3138C5.95558 14.1915 5.68151 13.9717 5.30232 13.4766C5.30232 13.1083 5.30232 12.7399 5.30232 12.3604Z" fill="#4A6ADD"/>
<path d="M23.3023 12.0813C23.3944 12.1734 23.4865 12.2655 23.5814 12.3604C23.4433 12.5676 23.4433 12.5676 23.3023 12.779C23.3484 12.9171 23.3944 13.0553 23.4419 13.1976C23.3808 13.5028 23.3808 13.5028 23.3023 13.7557C23.5493 13.783 23.7964 13.8089 24.0436 13.8342C24.1812 13.8488 24.3188 13.8633 24.4606 13.8784C24.8511 13.9184 24.8511 13.9184 25.2558 13.7557C25.2587 13.5802 25.2616 13.4046 25.2645 13.2237C25.2662 13.125 25.2678 13.0262 25.2694 12.9245C25.2673 12.6111 25.2673 12.6111 25.1163 12.2208C25.3005 12.3129 25.4847 12.405 25.6744 12.4999C25.7807 13.848 25.7807 13.848 25.4215 14.4796C24.7809 14.8438 24.1635 14.8615 23.4419 14.7325C23.1192 14.5755 23.1192 14.5755 22.8837 14.3139C22.8145 13.8909 22.8145 13.8909 22.8227 13.4069C22.8229 13.2472 22.823 13.0874 22.8232 12.9229C22.8837 12.4999 22.8837 12.4999 23.0968 12.2339C23.1647 12.1836 23.2325 12.1332 23.3023 12.0813Z" fill="#3D336E"/>
<path d="M10.8052 25.0319C10.9154 25.0302 11.0256 25.0285 11.1391 25.0267C11.4262 25.026 11.7133 25.041 12 25.058C12.0921 25.1501 12.1842 25.2422 12.2791 25.3371C12.2016 25.9728 12.2016 25.9728 12 26.1743C11.6059 26.192 11.2168 26.2002 10.8227 26.2005C10.7125 26.2022 10.6023 26.2039 10.4888 26.2057C10.2017 26.2064 9.91457 26.1914 9.62791 26.1743C9.53582 26.0822 9.44372 25.9901 9.34884 25.8953C9.47211 24.8844 9.89932 25.0326 10.8052 25.0319Z" fill="#2D2C49"/>
<path d="M14.4549 8.37548C15.0757 8.45137 15.688 8.46291 16.3125 8.45724C16.4098 8.45646 16.5071 8.45568 16.6073 8.45487C17.0124 8.45105 17.4173 8.44612 17.8223 8.44003C18.1214 8.43584 18.4204 8.43335 18.7195 8.43107C18.8962 8.42872 19.0729 8.42637 19.255 8.42395C19.6744 8.45342 19.6744 8.45342 19.9535 8.73249C18.2126 8.7509 16.4718 8.76911 14.7309 8.78707C13.9221 8.79542 13.1134 8.80384 12.3047 8.81241C11.5211 8.82071 10.7376 8.82883 9.95413 8.83684C9.6583 8.83989 9.36247 8.843 9.06665 8.84618C6.92809 8.86912 4.78984 8.87591 2.65116 8.87202C2.65116 8.82598 2.65116 8.77993 2.65116 8.73249C4.86019 8.57216 7.07008 8.54805 9.28401 8.5159C9.77201 8.50863 10.26 8.50067 10.748 8.49266C10.8951 8.49077 11.0422 8.48888 11.1938 8.48692C11.9712 8.474 12.7331 8.43303 13.5049 8.33701C13.832 8.31254 14.1298 8.33528 14.4549 8.37548Z" fill="#7635ED"/>
<path d="M6.15098 25.0391C6.26232 25.0396 6.37366 25.0401 6.48837 25.0407C6.59971 25.0402 6.71105 25.0396 6.82576 25.0391C7.65675 25.0405 7.65675 25.0405 7.81395 25.1977C7.77386 25.5241 7.72753 25.8498 7.67442 26.1744C7.3081 26.1819 6.94194 26.1875 6.57558 26.1919C6.47144 26.1942 6.36729 26.1965 6.25999 26.1989C5.98717 26.2014 5.71431 26.1888 5.44186 26.1744C5.16279 25.8953 5.16279 25.8953 5.13663 25.5378C5.18762 24.8749 5.5723 25.04 6.15098 25.0391Z" fill="#2E2F47"/>
<path d="M14.9215 25.0147C15.0954 25.0123 15.2694 25.01 15.4486 25.0076C15.907 25.0583 15.907 25.0583 16.18 25.2518C16.3256 25.4769 16.3256 25.4769 16.2907 25.7734C16.186 26.035 16.186 26.035 16.0465 26.1745C15.6756 26.1922 15.3099 26.2004 14.939 26.2007C14.8354 26.2024 14.7319 26.2041 14.6253 26.2059C14.3546 26.2066 14.0841 26.1915 13.814 26.1745C13.7219 26.0824 13.6298 25.9904 13.5349 25.8955C13.6448 25.016 14.1312 25.0171 14.9215 25.0147Z" fill="#242A4C"/>
<path d="M27.0698 5.24414C27.6724 5.72621 27.785 6.16665 27.907 6.91856C27.907 7.56321 27.907 8.20786 27.907 8.87205C25.6967 8.87205 23.4865 8.87205 21.2093 8.87205C21.2093 8.826 21.2093 8.77995 21.2093 8.73251C23.2814 8.64042 25.3535 8.54833 27.4884 8.45344C27.4407 6.41038 27.4407 6.41038 27.0698 5.24414Z" fill="#4F1DB7"/>
<path d="M8.09302 11.8022C8.13907 11.8022 8.18512 11.8022 8.23256 11.8022C8.23256 12.9074 8.23256 14.0125 8.23256 15.1511C7.17349 15.1511 6.11442 15.1511 5.02325 15.1511C5.02325 15.105 5.02325 15.059 5.02325 15.0115C5.52977 14.9655 6.03628 14.9195 6.55814 14.872C6.46605 14.7799 6.37395 14.6878 6.27907 14.5929C6.69349 14.5929 7.10791 14.5929 7.53488 14.5929C7.53488 13.9943 7.53488 13.3957 7.53488 12.779C7.62698 12.779 7.71907 12.779 7.81395 12.779C7.81395 12.6869 7.81395 12.5948 7.81395 12.4999C7.90605 12.4999 7.99814 12.4999 8.09302 12.4999C8.09302 12.2697 8.09302 12.0395 8.09302 11.8022Z" fill="#171535"/>
<path d="M22.7442 2.03491C22.8363 2.08096 22.9284 2.12701 23.0233 2.17445C23.0395 2.74418 23.0494 3.31386 23.0581 3.88375C23.0652 4.1263 23.0652 4.1263 23.0723 4.37376C23.0741 4.52934 23.0759 4.68493 23.0778 4.84523C23.0807 4.98845 23.0836 5.13167 23.0866 5.27923C23.0068 5.76242 22.8492 5.92661 22.4651 6.22096C21.9815 6.22096 21.8063 6.11604 21.4448 5.79363C21.3671 5.70442 21.2894 5.6152 21.2093 5.52328C21.2554 5.43119 21.3014 5.3391 21.3488 5.24421C21.4035 5.31616 21.4582 5.38811 21.5145 5.46224C21.598 5.52843 21.6815 5.59462 21.7674 5.66282C22.1289 5.61148 22.1289 5.61148 22.4651 5.52328C22.4686 5.42257 22.4721 5.32185 22.4757 5.21809C22.4918 4.76456 22.509 4.31108 22.5262 3.85759C22.5317 3.69903 22.5371 3.54048 22.5428 3.37712C22.5486 3.22648 22.5545 3.07584 22.5605 2.92063C22.5656 2.78106 22.5707 2.6415 22.576 2.4977C22.6047 2.17445 22.6047 2.17445 22.7442 2.03491Z" fill="#97A2B5"/>
<path d="M8.93023 2.03491C9.02232 2.08096 9.11442 2.12701 9.2093 2.17445C9.22146 2.72094 9.2289 3.2674 9.23546 3.81398C9.24072 4.04655 9.24072 4.04655 9.24609 4.28382C9.24812 4.50776 9.24812 4.50776 9.25018 4.73622C9.25347 4.94228 9.25347 4.94228 9.25682 5.15251C9.2011 5.58729 9.10403 5.77707 8.7907 6.08142C8.27616 6.11631 8.27616 6.11631 7.81395 6.08142C7.72186 5.85119 7.62977 5.62096 7.53488 5.38375C7.74209 5.52189 7.74209 5.52189 7.95349 5.66282C8.31981 5.68614 8.31981 5.68614 8.65116 5.66282C8.65466 5.55788 8.65815 5.45293 8.66176 5.34481C8.67788 4.8723 8.69503 4.39983 8.71221 3.92735C8.71769 3.76214 8.72318 3.59693 8.72883 3.42672C8.73468 3.26978 8.74052 3.11285 8.74655 2.95115C8.75166 2.80574 8.75678 2.66033 8.76205 2.51051C8.7907 2.17445 8.7907 2.17445 8.93023 2.03491Z" fill="#98A0B0"/>
<path d="M5.61628 3.84012C5.87529 3.84443 5.87529 3.84443 6.13953 3.84884C6.13953 3.89488 6.13953 3.94093 6.13953 3.98837C6.04007 4.0105 5.9406 4.03262 5.83812 4.05541C4.67465 4.33884 3.88873 4.65528 3.22674 5.68023C2.82215 6.36884 2.75411 6.99543 2.71221 7.78198C2.70618 7.88657 2.70016 7.99116 2.69395 8.09893C2.67918 8.35662 2.6651 8.61435 2.65116 8.87209C2.55907 8.87209 2.46698 8.87209 2.37209 8.87209C2.26475 7.41696 2.32821 6.33207 3.2093 5.10465C3.94288 4.29885 4.50915 3.82166 5.61628 3.84012Z" fill="#D2BDEA"/>
<path d="M2.37209 13.7559C2.41814 13.7559 2.46418 13.7559 2.51162 13.7559C2.51306 13.8895 2.5145 14.0232 2.51598 14.1609C2.52961 15.4196 2.54395 16.6782 2.55897 17.9368C2.56668 18.5839 2.57413 19.231 2.58102 19.8781C2.58767 20.5023 2.59497 21.1266 2.60273 21.7508C2.60558 21.9892 2.60819 22.2276 2.61057 22.466C2.61392 22.7994 2.61812 23.1328 2.62251 23.4662C2.62331 23.5652 2.62412 23.6642 2.62494 23.7661C2.63128 24.1879 2.65619 24.5151 2.79069 24.9186C2.6986 25.0568 2.60651 25.1949 2.51162 25.3373C2.34329 24.8323 2.35369 24.3719 2.35625 23.8464C2.35622 23.683 2.35622 23.683 2.35619 23.5163C2.35628 23.1562 2.35737 22.796 2.35846 22.4359C2.35872 22.1862 2.35892 21.9366 2.35906 21.6869C2.35959 21.0297 2.36097 20.3725 2.36251 19.7153C2.36394 19.0447 2.36457 18.374 2.36528 17.7034C2.36677 16.3876 2.36915 15.0717 2.37209 13.7559Z" fill="#DADDE2"/>
<path d="M26.093 8.45343C26.093 8.49947 26.093 8.54552 26.093 8.59296C25.4205 8.63318 24.748 8.6729 24.0755 8.71219C23.8472 8.7256 23.6189 8.73913 23.3906 8.7528C23.0605 8.77254 22.7304 8.7918 22.4003 8.81098C22.2999 8.81709 22.1996 8.82319 22.0962 8.82948C21.381 8.87039 20.6699 8.87697 19.9535 8.87203C19.9535 8.73389 19.9535 8.59575 19.9535 8.45343C24.1572 8.25804 24.1572 8.25804 26.093 8.45343Z" fill="#6022D7"/>
<path d="M27.3488 25.6162C27.4409 25.6162 27.533 25.6162 27.6279 25.6162C27.4444 26.6646 26.5743 27.2186 25.7627 27.8106C25.2985 28.0351 24.9577 28.03 24.4448 28.0145C24.2017 28.0088 24.2017 28.0088 23.9537 28.003C23.8308 27.9982 23.708 27.9933 23.5814 27.9883C23.5814 27.9423 23.5814 27.8962 23.5814 27.8488C23.6659 27.8367 23.7505 27.8247 23.8376 27.8123C24.7619 27.6572 25.5808 27.3849 26.3721 26.872C26.4642 26.7339 26.5563 26.5957 26.6512 26.4534C26.7433 26.4534 26.8354 26.4534 26.9302 26.4534C26.9763 26.2692 27.0223 26.085 27.0698 25.8953C27.1619 25.8953 27.254 25.8953 27.3488 25.8953C27.3488 25.8032 27.3488 25.7111 27.3488 25.6162Z" fill="#788292"/>
<path d="M7.25582 12.5C7.34791 12.5 7.44 12.5 7.53489 12.5C7.48743 13.2594 7.01819 13.747 6.55814 14.314C6.03064 14.2054 5.78873 14.0375 5.44186 13.6163C5.44186 13.4781 5.44186 13.34 5.44186 13.1977C6 13.1977 6 13.1977 6.24419 13.407C6.30175 13.476 6.35931 13.5451 6.41861 13.6163C6.47581 13.5357 6.533 13.4551 6.59194 13.3721C6.66712 13.2685 6.74231 13.1649 6.81977 13.0581C6.89424 12.9545 6.9687 12.8509 7.04543 12.7442C7.14957 12.6233 7.14957 12.6233 7.25582 12.5Z" fill="#E5EBF8"/>
<path d="M26.093 23.2441C26.3721 23.5232 26.3721 23.5232 26.4157 23.872C26.4013 23.9872 26.3869 24.1023 26.3721 24.2209C26.234 24.313 26.0958 24.4051 25.9535 24.5C25.8121 24.7314 25.6729 24.9641 25.5349 25.1976C24.9456 25.9987 24.9456 25.9987 24.4186 26.1744C24.4186 26.0823 24.4186 25.9902 24.4186 25.8953C24.3265 25.8493 24.2344 25.8032 24.1395 25.7558C24.212 25.6982 24.2845 25.6407 24.3592 25.5814C25.1611 24.9173 25.7601 24.243 26.093 23.2441Z" fill="#C3C8D2"/>
<path d="M7.39535 12.9187C7.4414 12.9187 7.48745 12.9187 7.53489 12.9187C7.53489 13.4252 7.53489 13.9317 7.53489 14.4536C7.23839 14.4573 6.94187 14.4601 6.64535 14.4623C6.48023 14.4639 6.31511 14.4655 6.14499 14.4672C5.72093 14.4536 5.72093 14.4536 5.44186 14.3141C5.44186 14.0838 5.44186 13.8536 5.44186 13.6164C5.60159 13.7502 5.60159 13.7502 5.76454 13.8867C6.12314 14.1944 6.12314 14.1944 6.55814 14.3141C6.60995 14.2018 6.60995 14.2018 6.66279 14.0873C6.87919 13.6762 7.12787 13.2984 7.39535 12.9187Z" fill="#544CE3"/>
<path d="M27.7674 20.593C27.8135 20.593 27.8595 20.593 27.907 20.593C27.9139 21.2187 27.9189 21.8444 27.9223 22.4701C27.9237 22.6828 27.9256 22.8956 27.928 23.1083C27.9314 23.4145 27.933 23.7207 27.9342 24.0269C27.9357 24.211 27.9372 24.3952 27.9387 24.5849C27.9095 25.0208 27.8604 25.2543 27.6279 25.6163C27.5358 25.6163 27.4437 25.6163 27.3488 25.6163C27.3028 25.7084 27.2567 25.8005 27.2093 25.8953C27.2295 25.7768 27.2496 25.6583 27.2704 25.5362C27.5408 23.889 27.69 22.2585 27.7674 20.593Z" fill="#9FACBF"/>
<path d="M3.48837 3.15112C3.58046 3.19717 3.67256 3.24322 3.76744 3.29066C3.61635 3.43743 3.61635 3.43743 3.46221 3.58717C3.07003 3.97935 2.72082 4.39422 2.37209 4.82554C2.26552 4.94938 2.26552 4.94938 2.15679 5.07572C1.90372 5.45907 1.82 5.80902 1.71802 6.25577C1.68295 6.40614 1.64787 6.55652 1.61174 6.71144C1.58638 6.82584 1.56101 6.94024 1.53488 7.0581C1.44279 7.01205 1.3507 6.96601 1.25581 6.91856C1.33086 5.86792 1.6517 5.13869 2.23256 4.2674C2.32465 4.2674 2.41674 4.2674 2.51163 4.2674C2.54904 4.17819 2.58645 4.08897 2.625 3.99705C2.7907 3.70926 2.7907 3.70926 3.2093 3.56973C3.2093 3.47763 3.2093 3.38554 3.2093 3.29066C3.3014 3.24461 3.39349 3.19856 3.48837 3.15112Z" fill="#333041"/>
<path d="M23.3023 12.0813C23.3944 12.1734 23.4865 12.2655 23.5814 12.3604C23.4433 12.5676 23.4433 12.5676 23.3023 12.779C23.3484 12.9171 23.3944 13.0553 23.4419 13.1976C23.3808 13.5028 23.3808 13.5028 23.3023 13.7557C23.5326 13.8018 23.7628 13.8478 24 13.8953C23.7237 14.0334 23.7237 14.0334 23.4419 14.1743C23.4419 14.3125 23.4419 14.4506 23.4419 14.5929C23.2577 14.5008 23.0735 14.4087 22.8837 14.3139C22.8724 14.0203 22.8643 13.7267 22.8576 13.433C22.8527 13.2695 22.8478 13.106 22.8428 12.9376C22.8837 12.4999 22.8837 12.4999 23.0947 12.2323C23.1632 12.1825 23.2317 12.1326 23.3023 12.0813Z" fill="#53476F"/>
<path d="M25.1163 20.0349C25.1623 20.0349 25.2084 20.0349 25.2558 20.0349C25.3335 21.9133 25.2656 23.1078 23.9558 24.5518C23.7209 24.7791 23.7209 24.7791 23.3023 25.0582C23.1642 25.0121 23.026 24.9661 22.8837 24.9186C22.978 24.8526 23.0722 24.7866 23.1693 24.7186C24.031 24.0798 24.5013 23.5648 24.8372 22.5465C24.8833 22.4544 24.9293 22.3624 24.9767 22.2675C25.0092 21.889 25.0353 21.5129 25.0552 21.1337C25.0613 21.0285 25.0673 20.9233 25.0735 20.8149C25.0883 20.5549 25.1024 20.2949 25.1163 20.0349Z" fill="#929CB2"/>
<path d="M10.4651 5.38379C10.5112 5.38379 10.5572 5.38379 10.6046 5.38379C10.5441 6.14116 10.3991 6.61257 9.90697 7.19774C9.25816 7.6504 8.58692 7.73538 7.81395 7.61635C7.72186 7.52425 7.62977 7.43216 7.53488 7.33728C7.68408 7.33674 7.68408 7.33674 7.8363 7.33619C8.68557 7.3019 9.24016 7.21456 9.85519 6.6069C10.1542 6.22179 10.3084 5.84461 10.4651 5.38379Z" fill="#C9A5E7"/>
<path d="M5.30232 3.70923C5.62465 3.70923 5.94697 3.70923 6.27907 3.70923C6.27907 4.49202 6.27907 5.27481 6.27907 6.08132C5.65116 5.29644 5.65116 5.29644 5.68604 4.71214C5.69108 4.60188 5.69612 4.49162 5.7013 4.37801C5.70778 4.29545 5.71426 4.21289 5.72093 4.12783C5.62883 4.08179 5.53674 4.03574 5.44186 3.9883C5.39581 3.89621 5.34976 3.80411 5.30232 3.70923Z" fill="#9970E8"/>
<path d="M5.02325 11.5232C6.03628 11.5232 7.0493 11.5232 8.09302 11.5232C8.27907 11.8953 8.18665 12.1046 8.09302 12.4999C8.00093 12.4999 7.90884 12.4999 7.81395 12.4999C7.76791 12.592 7.72186 12.6841 7.67442 12.779C7.62837 12.6409 7.58232 12.5027 7.53488 12.3604C7.25371 12.2581 7.25371 12.2581 6.97674 12.2209C7.02279 12.0827 7.06884 11.9446 7.11628 11.8023C6.42558 11.7562 5.73488 11.7102 5.02325 11.6627C5.02325 11.6167 5.02325 11.5706 5.02325 11.5232Z" fill="#2F334D"/>
<path d="M22.7442 19.8953C22.9284 19.9413 23.1126 19.9874 23.3023 20.0348C22.7037 20.6334 22.1051 21.232 21.4884 21.8488C21.143 21.7106 21.143 21.7106 20.7907 21.5697C20.8828 21.5236 20.9749 21.4776 21.0698 21.4301C21.1619 21.4762 21.254 21.5222 21.3488 21.5697C21.3862 21.4805 21.4237 21.3913 21.4622 21.2993C21.6279 21.0115 21.6279 21.0115 22.0465 20.872C22.0465 20.7799 22.0465 20.6878 22.0465 20.5929C22.1386 20.5929 22.2307 20.5929 22.3256 20.5929C22.3256 20.5008 22.3256 20.4088 22.3256 20.3139C22.5 20.0784 22.5 20.0784 22.7442 19.8953Z" fill="#A4B0C3"/>
<path d="M24.4186 4.12793C24.5567 4.12793 24.6949 4.12793 24.8372 4.12793C24.7912 4.26607 24.7451 4.40421 24.6977 4.54653C24.695 4.77037 24.6985 4.99433 24.7064 5.21805C24.7075 5.95414 24.6878 6.48267 24.1711 7.05162C23.6308 7.56187 23.6308 7.56187 23.3023 7.75584C22.9873 7.71278 22.9873 7.71278 22.7442 7.6163C22.8199 7.57403 22.8956 7.53176 22.9737 7.48821C23.0735 7.42976 23.1733 7.3713 23.2762 7.31107C23.4243 7.22608 23.4243 7.22608 23.5754 7.13938C24.1041 6.72994 24.261 6.35407 24.3505 5.69497C24.3606 5.50702 24.3687 5.31895 24.375 5.13084C24.3798 5.03416 24.3845 4.93748 24.3894 4.83787C24.4009 4.6013 24.41 4.36462 24.4186 4.12793Z" fill="#752FD9"/>
<path d="M8.09302 11.8022C8.13907 11.8022 8.18512 11.8022 8.23256 11.8022C8.23256 12.9074 8.23256 14.0125 8.23256 15.1511C7.81814 15.1511 7.40372 15.1511 6.97675 15.1511C6.97675 15.105 6.97675 15.059 6.97675 15.0115C7.34512 15.0115 7.71349 15.0115 8.09302 15.0115C8.09302 14.459 8.09302 13.9064 8.09302 13.3371C7.95488 13.3832 7.81675 13.4292 7.67442 13.4767C7.72047 13.1543 7.76651 12.832 7.81395 12.4999C7.90605 12.4999 7.99814 12.4999 8.09302 12.4999C8.09302 12.2697 8.09302 12.0395 8.09302 11.8022Z" fill="#090C2D"/>
<path d="M23.4419 14.0349C23.7011 14.0474 23.9599 14.0693 24.218 14.096C24.4298 14.1173 24.4298 14.1173 24.6459 14.139C24.8097 14.1566 24.8097 14.1566 24.9767 14.1744C24.9767 14.3586 24.9767 14.5428 24.9767 14.7326C24.4702 14.7326 23.9637 14.7326 23.4419 14.7326C23.3958 14.5484 23.3498 14.3642 23.3023 14.1744C23.3484 14.1284 23.3944 14.0824 23.4419 14.0349Z" fill="#463E62"/>
<path d="M27.0698 5.24414C27.584 5.72519 27.7586 5.9888 27.786 6.7098C27.7863 6.89857 27.786 7.08735 27.7849 7.27612C27.7854 7.37172 27.786 7.46732 27.7865 7.56582C27.7851 8.27855 27.7851 8.27855 27.6279 8.59298C27.4437 8.54693 27.2595 8.50088 27.0698 8.45344C27.2079 8.45344 27.346 8.45344 27.4884 8.45344C27.4723 8.10159 27.4546 7.74993 27.436 7.39821C27.4317 7.29991 27.4274 7.20161 27.423 7.10034C27.3866 6.44233 27.2726 5.87151 27.0698 5.24414Z" fill="#5C27C3"/>
<path d="M4.18604 4.54663C4.27814 4.59268 4.37023 4.63872 4.46511 4.68617C4.39101 4.75739 4.3169 4.82862 4.24055 4.90201C3.43535 5.73072 3.07707 6.50294 2.79069 7.6164C2.74465 7.6164 2.6986 7.6164 2.65116 7.6164C2.58145 6.77988 2.74959 6.22698 3.2093 5.52338C3.57558 5.12221 3.57558 5.12221 3.90697 4.8257C3.99907 4.73361 4.09116 4.64151 4.18604 4.54663Z" fill="#AF7AF7"/>
<path d="M22.7442 4.82568C22.982 5.18239 23.0333 5.32982 22.9535 5.75882C22.7442 6.0815 22.7442 6.0815 22.3517 6.23847C21.907 6.22103 21.907 6.22103 21.5058 5.88092C21.408 5.76292 21.3101 5.64493 21.2093 5.52336C21.2554 5.43126 21.3014 5.33917 21.3488 5.24429C21.4035 5.31624 21.4582 5.38818 21.5145 5.46231C21.7603 5.69992 21.7603 5.69992 22.125 5.66289C22.4991 5.55248 22.4991 5.55248 22.6483 5.1658C22.6799 5.05356 22.7116 4.94132 22.7442 4.82568Z" fill="#8795A7"/>
<path d="M24 19.0581C24.046 19.1962 24.0921 19.3344 24.1395 19.4767C23.4028 20.2135 22.666 20.9502 21.907 21.7093C21.8149 21.6632 21.7228 21.6172 21.6279 21.5697C21.7795 21.4205 21.7795 21.4205 21.9342 21.2683C22.6551 20.5554 23.3553 19.8422 24 19.0581Z" fill="#2D3243"/>
<path d="M14.4081 25.031C14.5861 25.0342 14.7642 25.0375 14.9477 25.0408C15.2159 25.0446 15.2159 25.0446 15.4895 25.0484C15.6961 25.0533 15.6961 25.0533 15.907 25.0583C15.907 25.1043 15.907 25.1504 15.907 25.1978C15.0091 25.2669 15.0091 25.2669 14.093 25.3373C14.047 25.5676 14.0009 25.7978 13.9535 26.035C14.3679 26.035 14.7823 26.035 15.2093 26.035C15.2093 26.081 15.2093 26.1271 15.2093 26.1745C14.9826 26.1821 14.7558 26.1875 14.5291 26.192C14.4028 26.1952 14.2765 26.1985 14.1464 26.2018C13.814 26.1745 13.814 26.1745 13.5349 25.8955C13.61 25.2942 13.783 25.0685 14.4081 25.031Z" fill="#5D5E75"/>
<path d="M7.25581 2.31396C7.30186 2.31396 7.34791 2.31396 7.39535 2.31396C7.39535 3.18885 7.39535 4.06373 7.39535 4.96513C7.30326 4.96513 7.21116 4.96513 7.11628 4.96513C7.08534 4.60183 7.05658 4.23857 7.02907 3.87501C7.02008 3.77204 7.01108 3.66906 7.00182 3.56297C6.94513 2.77999 6.94513 2.77999 7.25581 2.31396Z" fill="#404563"/>
<path d="M27.3488 25.6162C27.4409 25.6162 27.533 25.6162 27.6279 25.6162C27.4548 26.5036 26.91 26.8976 26.2326 27.4302C26.2326 26.939 26.3307 26.8108 26.6512 26.4534C26.7433 26.4534 26.8353 26.4534 26.9302 26.4534C26.9763 26.2692 27.0223 26.085 27.0698 25.8953C27.1619 25.8953 27.254 25.8953 27.3488 25.8953C27.3488 25.8032 27.3488 25.7111 27.3488 25.6162Z" fill="#70788F"/>
<path d="M2.37209 20.8721C2.41814 20.8721 2.46418 20.8721 2.51162 20.8721C2.51512 20.9798 2.51862 21.0875 2.52222 21.1985C2.53839 21.6856 2.55552 22.1727 2.57267 22.6599C2.57816 22.8294 2.58364 22.9989 2.5893 23.1736C2.59514 23.3359 2.60099 23.4982 2.60701 23.6655C2.61212 23.8153 2.61724 23.9651 2.62251 24.1194C2.63657 24.513 2.63657 24.513 2.79069 24.9186C2.6986 25.0567 2.60651 25.1949 2.51162 25.3372C2.35267 24.8603 2.35627 24.4951 2.35846 23.9925C2.35891 23.8113 2.35936 23.6301 2.35983 23.4434C2.36099 23.252 2.36217 23.0606 2.36337 22.8692C2.36407 22.6761 2.36471 22.4831 2.36528 22.29C2.36692 21.8174 2.36922 21.3447 2.37209 20.8721Z" fill="#C6CCD3"/>
<path d="M5.30232 12.3604C5.71674 12.3604 6.13116 12.3604 6.55814 12.3604C6.42 12.4064 6.28186 12.4524 6.13953 12.4999C6.18558 12.638 6.23162 12.7762 6.27907 12.9185C6.00279 12.9645 5.72651 13.0106 5.44186 13.058C5.39581 13.1962 5.34976 13.3343 5.30232 13.4766C5.30232 13.1083 5.30232 12.7399 5.30232 12.3604Z" fill="#6949E6"/>
<path d="M26.093 23.2441C26.3721 23.5232 26.3721 23.5232 26.4419 23.8459C26.3367 24.4109 25.9834 24.5867 25.5349 24.9186C25.4428 25.0107 25.3507 25.1027 25.2558 25.1976C25.3303 24.5643 25.5935 24.1803 25.9535 23.6627C25.9995 23.5246 26.0456 23.3865 26.093 23.2441Z" fill="#D0D5E0"/>
<path d="M6.27907 14.593C6.69349 14.593 7.10791 14.593 7.53488 14.593C7.53488 14.7312 7.53488 14.8693 7.53488 15.0116C7.01107 15.1796 6.51179 15.1649 5.96511 15.1599C5.78884 15.1586 5.61257 15.1574 5.43096 15.1561C5.29642 15.1544 5.16187 15.1528 5.02325 15.1512C5.02325 15.1051 5.02325 15.0591 5.02325 15.0116C5.78302 14.9426 5.78302 14.9426 6.55814 14.8721C6.46605 14.78 6.37395 14.6879 6.27907 14.593Z" fill="#181525"/>
<path d="M5.5814 3.43018C5.90372 3.43018 6.22605 3.43018 6.55814 3.43018C6.55814 4.30506 6.55814 5.17994 6.55814 6.08134C6.27907 5.80227 6.27907 5.80227 6.25182 5.31717C6.25367 5.1242 6.257 4.93124 6.26163 4.73832C6.26289 4.63975 6.26415 4.54118 6.26545 4.43962C6.26874 4.19614 6.27374 3.95269 6.27907 3.70925C6.04884 3.70925 5.81861 3.70925 5.5814 3.70925C5.5814 3.61715 5.5814 3.52506 5.5814 3.43018Z" fill="#362752"/>
<path d="M3.48837 3.15112C3.58047 3.19717 3.67256 3.24322 3.76744 3.29066C3.66672 3.38851 3.56599 3.48636 3.46221 3.58717C3.18846 3.8586 2.94326 4.1401 2.70349 4.44182C2.3721 4.82554 2.3721 4.82554 1.95349 4.96508C2.04558 4.73484 2.13768 4.50461 2.23256 4.2674C2.32465 4.2674 2.41675 4.2674 2.51163 4.2674C2.54904 4.17819 2.58646 4.08897 2.625 3.99705C2.7907 3.70926 2.7907 3.70926 3.20931 3.56973C3.20931 3.47763 3.20931 3.38554 3.20931 3.29066C3.3014 3.24461 3.39349 3.19856 3.48837 3.15112Z" fill="#3D3B55"/>
<path d="M5.44186 13.1978C5.62605 13.1978 5.81024 13.1978 6 13.1978C6.04605 13.428 6.0921 13.6582 6.13954 13.8954C6.27768 13.8954 6.41582 13.8954 6.55814 13.8954C6.55814 14.0336 6.55814 14.1717 6.55814 14.314C6.02997 14.2386 5.7779 14.0244 5.44186 13.6164C5.44186 13.4782 5.44186 13.3401 5.44186 13.1978Z" fill="#EDF2FB"/>
<path d="M26.2326 18.5C26.3707 18.5921 26.5088 18.6842 26.6512 18.7791C26.6253 18.9086 26.5994 19.0381 26.5727 19.1715C26.478 19.6182 26.478 19.6182 26.6512 20.0349C26.513 20.2421 26.513 20.2421 26.3721 20.4535C26.1555 19.9526 26.093 19.6016 26.093 19.0581C26.0009 19.0121 25.9088 18.966 25.8139 18.9186C25.906 18.9186 25.9981 18.9186 26.093 18.9186C26.1391 18.7805 26.1851 18.6423 26.2326 18.5Z" fill="#BFC3CC"/>
<path d="M24.1395 5.94189C24.2442 6.17736 24.2442 6.17736 24.2791 6.50003C23.9887 6.93563 23.7396 7.18529 23.3023 7.47678C22.9971 7.42445 22.9971 7.42445 22.7442 7.33724C22.8708 7.26242 22.9974 7.18759 23.1279 7.1105C23.6099 6.79297 23.848 6.4353 24.1395 5.94189Z" fill="#CDA8E5"/>
<path d="M10.0465 22.686C10.6912 22.686 11.3358 22.686 12 22.686C11.954 22.8242 11.9079 22.9623 11.8605 23.1046C11.3079 23.1046 10.7553 23.1046 10.186 23.1046C10.14 22.9665 10.094 22.8284 10.0465 22.686Z" fill="#4A485F"/>
<path d="M24.8372 20.314C24.8372 20.4521 24.8372 20.5902 24.8372 20.7326C24.593 20.9566 24.593 20.9566 24.2791 21.1773C24.1755 21.2513 24.0719 21.3252 23.9651 21.4014C23.8845 21.4569 23.804 21.5125 23.7209 21.5698C23.6749 21.4316 23.6288 21.2935 23.5814 21.1512C24.3663 20.4709 24.3663 20.4709 24.8372 20.314Z" fill="#D4D8E1"/>
<path d="M5.44186 13.6162C5.54835 13.7054 5.65483 13.7946 5.76454 13.8866C6.12314 14.1942 6.12314 14.1942 6.55814 14.3139C6.60419 14.1757 6.65024 14.0376 6.69768 13.8953C6.83582 14.1025 6.83582 14.1025 6.97675 14.3139C6.71179 14.5788 6.33873 14.4707 5.98747 14.472C5.72093 14.4534 5.72093 14.4534 5.44186 14.3139C5.44186 14.0837 5.44186 13.8534 5.44186 13.6162Z" fill="#6471D7"/>
<path d="M29.0233 6.0813C29.3141 6.55398 29.3622 6.92587 29.3023 7.47665C29.1642 7.56874 29.026 7.66083 28.8837 7.75572C28.8377 7.24921 28.7916 6.74269 28.7442 6.22083C28.8363 6.17479 28.9284 6.12874 29.0233 6.0813Z" fill="#0A0B1C"/>
<path d="M10.3256 3.98828C10.6019 3.98828 10.8781 3.98828 11.1628 3.98828C11.0592 4.11347 11.0592 4.11347 10.9535 4.24119C10.7047 4.54228 10.7047 4.54228 10.7442 4.96503C10.6521 4.96503 10.56 4.96503 10.4651 4.96503C10.4651 5.19526 10.4651 5.42549 10.4651 5.6627C10.4191 5.6627 10.373 5.6627 10.3256 5.6627C10.3256 5.11014 10.3256 4.55758 10.3256 3.98828Z" fill="#8D57D7"/>
<path d="M20.7907 0.779053C20.9749 0.825099 21.1591 0.871146 21.3488 0.918588C21.1762 1.12298 21.0036 1.32738 20.831 1.53178C20.6662 1.73703 20.5181 1.95538 20.3721 2.1744C20.3721 2.08231 20.3721 1.99022 20.3721 1.89533C20.28 1.84929 20.1879 1.80324 20.093 1.7558C20.3233 1.43347 20.5535 1.11115 20.7907 0.779053Z" fill="#29283D"/>
<path d="M23.8605 26.1743C23.8605 26.2664 23.8605 26.3585 23.8605 26.4534C23.0581 26.872 23.0581 26.872 22.7442 26.872C22.7442 26.7799 22.7442 26.6878 22.7442 26.5929C22.606 26.5469 22.4679 26.5008 22.3256 26.4534C22.5286 26.3794 22.7322 26.3071 22.936 26.2354C23.0494 26.1949 23.1627 26.1544 23.2794 26.1127C23.5814 26.0348 23.5814 26.0348 23.8605 26.1743Z" fill="#BEC1CC"/>
<path d="M9.90698 1.05811C10.3708 1.66305 10.4819 1.96109 10.4651 2.73252C10.373 2.73252 10.2809 2.73252 10.186 2.73252C10.1121 2.50618 10.0397 2.27934 9.96802 2.05229C9.92755 1.92602 9.88708 1.79976 9.84539 1.66966C9.76744 1.33718 9.76744 1.33718 9.90698 1.05811Z" fill="#161926"/>
<path d="M23.7209 1.33716C23.8591 1.3832 23.9972 1.42925 24.1395 1.47669C24.2415 1.73451 24.2415 1.73451 24.3052 2.04355C24.3274 2.1459 24.3495 2.24824 24.3723 2.35369C24.3952 2.47214 24.3952 2.47214 24.4186 2.59297C24.2805 2.59297 24.1423 2.59297 24 2.59297C23.7909 2.1226 23.7209 1.86677 23.7209 1.33716Z" fill="#0E0F1E"/>
<path d="M8.09303 0.500072C7.67961 0.833103 7.26381 1.16082 6.83721 1.47682C6.79117 1.33868 6.74512 1.20054 6.69768 1.05821C7.17362 0.623065 7.43948 0.42538 8.09303 0.500072Z" fill="#2D2D42"/>
<path d="M17.7209 19.6162C17.767 19.6162 17.813 19.6162 17.8605 19.6162C17.8929 20.4929 17.7774 21.2739 17.5814 22.1278C17.5353 22.1278 17.4893 22.1278 17.4419 22.1278C17.4128 21.2339 17.4198 20.4632 17.7209 19.6162Z" fill="#B2B4C1"/>
<path d="M27.6279 24.5C27.72 24.546 27.8121 24.5921 27.907 24.6395C27.8609 24.9158 27.8149 25.1921 27.7674 25.4767C27.6293 25.5228 27.4912 25.5688 27.3488 25.6163C27.3028 25.7084 27.2567 25.8005 27.2093 25.8953C27.2801 25.3764 27.365 24.9556 27.6279 24.5Z" fill="#8A95A5"/>
<path d="M21.7674 20.8721C21.8595 20.9181 21.9516 20.9642 22.0465 21.0116C21.9002 21.3774 21.8164 21.541 21.4709 21.7442C21.3846 21.7787 21.2983 21.8132 21.2093 21.8488C21.0712 21.7107 20.933 21.5725 20.7907 21.4302C20.9749 21.4763 21.1591 21.5223 21.3488 21.5697C21.392 21.4805 21.4352 21.3913 21.4796 21.2994C21.6279 21.0116 21.6279 21.0116 21.7674 20.8721Z" fill="#B2BACA"/>
<path d="M25.1163 12.3604C25.3954 12.6394 25.3954 12.6394 25.4226 12.9109C25.4135 13.1925 25.4044 13.4741 25.3954 13.7557C25.2112 13.8017 25.027 13.8478 24.8372 13.8952C24.9293 13.3887 25.0214 12.8822 25.1163 12.3604Z" fill="#462383"/>
<path d="M17.3023 18.3604C17.3484 18.4524 17.3944 18.5445 17.4419 18.6394C17.2416 19.1901 17.0681 19.6596 16.6047 20.0348C16.6711 19.3372 16.8881 18.9215 17.3023 18.3604Z" fill="#3D4154"/>
<path d="M5.30233 16.407C5.39442 16.4991 5.48651 16.5912 5.5814 16.6861C5.53823 16.8069 5.49506 16.9278 5.45058 17.0523C5.3128 17.49 5.22756 17.9071 5.16279 18.3605C5.11674 18.3605 5.0707 18.3605 5.02326 18.3605C5.01574 18.0873 5.01031 17.814 5.00581 17.5407C5.00258 17.3885 4.99934 17.2364 4.996 17.0796C5.02326 16.6861 5.02326 16.6861 5.30233 16.407Z" fill="#474256"/>
<path d="M14.5116 11.9419C15.1563 11.9419 15.8009 11.9419 16.4651 11.9419C16.0147 12.2422 15.9215 12.2479 15.4099 12.221C15.0853 12.1976 15.0853 12.1976 14.7907 12.221C14.6986 12.3131 14.6065 12.4052 14.5116 12.5C14.4656 12.4079 14.4195 12.3158 14.3721 12.221C14.4181 12.1289 14.4642 12.0368 14.5116 11.9419Z" fill="#4A4858"/>
<path d="M3.06977 6.0813C3.22834 6.55702 3.19081 6.63991 3.00872 7.08421C2.94855 7.23395 2.94855 7.23395 2.88717 7.38671C2.85534 7.46244 2.8235 7.53816 2.7907 7.61618C2.74465 7.61618 2.6986 7.61618 2.65116 7.61618C2.63372 6.69176 2.63372 6.69176 2.7907 6.22083C2.88279 6.17479 2.97488 6.12874 3.06977 6.0813Z" fill="#A870F9"/>
<path d="M8.51163 3.84888C8.55768 3.84888 8.60372 3.84888 8.65117 3.84888C8.65117 4.49353 8.65117 5.13818 8.65117 5.80237C8.42093 5.80237 8.1907 5.80237 7.95349 5.80237C8.02058 5.74966 8.08767 5.69696 8.1568 5.64266C8.44697 5.29372 8.44164 5.03868 8.46803 4.59016C8.4772 4.45148 8.48637 4.3128 8.49582 4.16992C8.50104 4.06397 8.50626 3.95803 8.51163 3.84888Z" fill="#D6E1E9"/>
<path d="M25.9535 27.0117C26.0456 27.0578 26.1377 27.1038 26.2326 27.1513C26.093 27.5699 26.093 27.5699 25.814 27.7094C25.5349 27.715 25.2557 27.7155 24.9767 27.7094C25.2973 27.4662 25.6184 27.2351 25.9535 27.0117Z" fill="#919BA9"/>
<path d="M9.48837 16.8257C9.53442 16.8257 9.58047 16.8257 9.62791 16.8257C9.63474 16.9316 9.64158 17.0376 9.64862 17.1467C9.65905 17.2854 9.66949 17.4241 9.68023 17.567C9.68995 17.7046 9.69966 17.8422 9.70967 17.9839C9.74493 18.3906 9.74493 18.3906 10.0465 18.7792C9.90837 18.7792 9.77023 18.7792 9.62791 18.7792C9.48837 18.6396 9.48837 18.6396 9.47475 18.2292C9.47637 18.0625 9.47798 17.8957 9.47965 17.7239C9.48091 17.5568 9.48217 17.3897 9.48347 17.2176C9.48509 17.0883 9.48671 16.9589 9.48837 16.8257Z" fill="#B9B8C2"/>
<path d="M6.13953 12.5C6.41581 12.5 6.69209 12.5 6.97674 12.5C6.8386 12.7072 6.8386 12.7072 6.69767 12.9186C6.60558 12.9186 6.51349 12.9186 6.4186 12.9186C6.37256 13.0567 6.32651 13.1949 6.27907 13.3372C6.18698 13.1991 6.09488 13.0609 6 12.9186C6.04605 12.7805 6.09209 12.6423 6.13953 12.5Z" fill="#2F53F9"/>
<path d="M6.4186 1.47681C6.55674 1.61495 6.69488 1.75309 6.83721 1.89541C6.63 2.24076 6.63 2.24076 6.4186 2.59309C6.32651 2.54704 6.23442 2.50099 6.13953 2.45355C6.23163 2.13123 6.32372 1.8089 6.4186 1.47681Z" fill="#2E2E46"/>
<path d="M24.4186 4.12793C24.5567 4.12793 24.6949 4.12793 24.8372 4.12793C24.7912 4.26607 24.7451 4.40421 24.6977 4.54653C24.6882 4.78764 24.6858 5.0291 24.689 5.27037C24.6902 5.3961 24.6915 5.52183 24.6928 5.65137C24.6944 5.74724 24.696 5.84311 24.6977 5.94188C24.6056 5.94188 24.5135 5.94188 24.4186 5.94188C24.4186 5.34328 24.4186 4.74467 24.4186 4.12793Z" fill="#7F32F0"/>
<path d="M3.2093 5.10474C3.30139 5.19683 3.39349 5.28892 3.48837 5.38381C3.2093 5.80241 2.93023 6.22102 2.65116 6.63962C2.72237 6.02719 2.86355 5.61584 3.2093 5.10474Z" fill="#D5BDEB"/>
</g>
<defs>
<clipPath id="clip0_542_9942">
<rect width="30.4186" height="30" fill="white" transform="translate(0 0.5)"/>
</clipPath>
</defs>
</svg>
